<svg width="0" height="0" class="hidden">
  <symbol xmlns="http://www.w3.org/2000/svg" viewBox="0 0 512.001 512.001" id="basketball">
    <linearGradient id="a" gradientUnits="userSpaceOnUse" x1="3.142" y1="259.44" x2="507.977" y2="259.44" gradientTransform="matrix(1.0039 0 0 -1.0039 .192 516.562)">
      <stop offset="0" stop-color="#654e48"></stop>
      <stop offset=".445" stop-color="#5f4843"></stop>
      <stop offset="1" stop-color="#503837"></stop>
    </linearGradient>
    <path d="M116.21 371.053c0-20.169 1.412-40.12 4.166-59.746.799-5.696 6.846-9.05 12.12-6.756 1.065.463 2.132.922 3.204 1.374a440.185 440.185 0 0038.171 14.107c4.231 1.344 6.747 5.65 5.902 10.007a258.807 258.807 0 00-4.709 49.266c0 44.443 11.256 87.15 32.394 124.891a8.638 8.638 0 006.103 4.291l.468.077c7.182 1.183 12.555-6.539 8.993-12.885-19.331-34.446-30.369-74.143-30.369-116.373a238.69 238.69 0 013.919-43.132c.906-4.93 5.712-8.119 10.595-6.982 32.712 7.616 66.311 11.455 100.495 11.455 59.635 0 117.491-11.682 171.962-34.721a439.455 439.455 0 0025.692-11.871c2.636-1.321 4.422-3.893 4.778-6.821.842-6.926-6.367-11.958-12.603-8.829-58.199 29.193-122.82 44.654-189.829 44.654-32.535 0-64.509-3.648-95.46-10.734-5.093-1.166-8.009-6.527-6.288-11.46C238.431 207.72 327.156 140.71 431.249 140.71c16.649 0 32.901 1.726 48.595 4.992 3.278.682 5.906-2.761 4.387-5.744a253.185 253.185 0 00-4.883-9.129 8.637 8.637 0 00-6.12-4.286 258.966 258.966 0 00-41.978-3.42c-68.429 0-132.763 26.647-181.149 75.034-28.332 28.333-49.204 62.135-61.644 99.023-1.535 4.552-6.401 7.079-10.974 5.611a418.39 418.39 0 01-45.515-17.593c-3.807-1.733-5.853-5.908-4.916-9.984 17.626-76.691 56.384-147.089 113.4-204.106 22.953-22.952 48.082-42.931 74.908-59.782 2.166-1.361 1.504-4.674-1.018-5.104l-15.093-2.574a8.614 8.614 0 00-6.279 1.346c-23.176 15.693-44.888 33.61-64.956 53.678-40.569 40.569-72.422 87.813-94.672 140.421A438.93 438.93 0 00111.913 263c-1.402 5.575-7.766 8.301-12.77 5.47a421.176 421.176 0 01-20.839-12.602c-3.11-2.006-4.661-5.722-3.828-9.328 4.36-18.857 6.61-38.343 6.61-58.176 0-31.807-5.764-62.727-16.787-91.574-1.295-3.389-5.836-4.002-8.022-1.107l-4.68 6.194c-1.765 2.336-2.271 5.4-1.307 8.165 8.554 24.543 13.209 50.898 13.209 78.321 0 13.37-1.109 26.486-3.236 39.262-1.083 6.506-8.715 9.52-13.905 5.449-8.755-6.868-22.776-19.609-31.598-27.767-3.608-3.336-9.497-1.405-10.396 3.425-.315 1.698-.614 3.4-.898 5.109-.478 2.894.48 5.852 2.622 7.856a443.347 443.347 0 0041.387 34.281 8.735 8.735 0 013.095 9.895c-8.251 23.955-20.222 46.191-35.21 66.028-1.755 2.323-2.189 5.38-1.235 8.132a253.19 253.19 0 003.254 8.851c1.035 2.66 4.571 3.217 6.375 1.004 17.264-21.175 30.874-44.704 40.486-69.812 1.965-5.132 8.081-7.202 12.766-4.33a439.184 439.184 0 0023.127 13.231c3.283 1.748 5.079 5.417 4.469 9.085-3.978 23.952-5.984 48.319-5.984 72.993 0 30.861 3.133 61.244 9.346 90.929a8.692 8.692 0 003.586 5.391 256.224 256.224 0 009.3 6.074c3.341 2.08 7.508-.936 6.61-4.768-7.415-31.628-11.25-64.331-11.25-97.628z" fill="url(#a)"></path>
    <radialGradient id="b" cx="112.379" cy="393.623" r="387.37" gradientTransform="matrix(1.0039 0 0 -1.0039 .192 516.562)" gradientUnits="userSpaceOnUse">
      <stop offset="0" stop-color="#ff931e"></stop>
      <stop offset=".325" stop-color="#ff901c"></stop>
      <stop offset=".567" stop-color="#ff8717"></stop>
      <stop offset=".781" stop-color="#ff770e"></stop>
      <stop offset=".978" stop-color="#ff6002"></stop>
      <stop offset="1" stop-color="#ff5d00"></stop>
    </radialGradient>
    <path d="M129.845 284.224a418.676 418.676 0 0050.247 19.395c3.136.984 6.486-.714 7.503-3.84 12.325-37.9 33.509-72.627 62.505-101.623 48.387-48.387 112.72-75.034 181.149-75.034 12.402 0 24.668.887 36.729 2.614 3.711.531 6.311-3.569 4.302-6.733-33.842-53.318-86.85-93.271-149.339-110.156a5.996 5.996 0 00-4.708.69c-27.906 17.22-54.011 37.801-77.781 61.571-57.586 57.586-96.547 128.822-113.922 206.403a5.972 5.972 0 003.315 6.713z" fill="url(#b)"></path>
    <radialGradient id="c" cx="112.379" cy="393.623" r="387.37" gradientTransform="matrix(1.0039 0 0 -1.0039 .192 516.562)" gradientUnits="userSpaceOnUse">
      <stop offset="0" stop-color="#ff931e"></stop>
      <stop offset=".325" stop-color="#ff901c"></stop>
      <stop offset=".567" stop-color="#ff8717"></stop>
      <stop offset=".781" stop-color="#ff770e"></stop>
      <stop offset=".978" stop-color="#ff6002"></stop>
      <stop offset="1" stop-color="#ff5d00"></stop>
    </radialGradient>
    <path d="M204.88 303.893c-1.118 3.349.904 6.923 4.34 7.736 31.879 7.541 64.86 11.428 98.442 11.428 68.262 0 134.045-16.045 193.086-46.306 6.817-3.494 11.153-10.441 11.238-18.101.01-.882.015-1.766.015-2.65 0-37.279-7.983-72.687-22.31-104.633-1.109-2.473-3.355-4.238-5.999-4.833a238.234 238.234 0 00-52.441-5.825c-105.219.001-194.736 68.468-226.371 163.184z" fill="url(#c)"></path>
    <radialGradient id="d" cx="112.379" cy="393.623" r="387.37" gradientTransform="matrix(1.0039 0 0 -1.0039 .192 516.562)" gradientUnits="userSpaceOnUse">
      <stop offset="0" stop-color="#ff931e"></stop>
      <stop offset=".325" stop-color="#ff901c"></stop>
      <stop offset=".567" stop-color="#ff8717"></stop>
      <stop offset=".781" stop-color="#ff770e"></stop>
      <stop offset=".978" stop-color="#ff6002"></stop>
      <stop offset="1" stop-color="#ff5d00"></stop>
    </radialGradient>
    <path d="M102.334 270.254c3.46 1.918 7.796.027 8.73-3.817a438.68 438.68 0 0122.279-67.346c22.251-52.608 54.103-99.851 94.673-140.421 18.875-18.875 39.204-35.846 60.838-50.855 2.447-1.698 1.519-5.537-1.437-5.899A258.342 258.342 0 00256 .001c-76.542 0-145.229 33.601-192.141 86.847-1.495 1.697-1.862 4.098-1.022 6.197 11.976 29.908 18.25 62.13 18.25 95.316 0 20.453-2.392 40.536-7.024 59.94-.589 2.471.394 5.06 2.521 6.447a419.786 419.786 0 0025.75 15.506z" fill="url(#d)"></path>
    <radialGradient id="e" cx="112.379" cy="393.623" r="387.37" gradientTransform="matrix(1.0039 0 0 -1.0039 .192 516.562)" gradientUnits="userSpaceOnUse">
      <stop offset="0" stop-color="#ff931e"></stop>
      <stop offset=".325" stop-color="#ff901c"></stop>
      <stop offset=".567" stop-color="#ff8717"></stop>
      <stop offset=".781" stop-color="#ff770e"></stop>
      <stop offset=".978" stop-color="#ff6002"></stop>
      <stop offset="1" stop-color="#ff5d00"></stop>
    </radialGradient>
    <path d="M256 512.001c125.106 0 229.233-89.748 251.557-208.369.907-4.816-4.06-8.643-8.474-6.514a433.385 433.385 0 01-19.459 8.806c-54.47 23.039-112.327 34.721-171.962 34.721-35.156 0-69.693-4.061-103.283-12.113-3.296-.79-6.587 1.352-7.241 4.678a238.608 238.608 0 00-4.484 46.096c0 43.421 11.67 84.163 32.023 119.273 4.568 7.88 12.843 12.909 21.946 13.248 3.111.114 6.237.174 9.377.174z" fill="url(#e)"></path>
    <radialGradient id="f" cx="112.379" cy="393.623" r="387.37" gradientTransform="matrix(1.0039 0 0 -1.0039 .192 516.562)" gradientUnits="userSpaceOnUse">
      <stop offset="0" stop-color="#ff931e"></stop>
      <stop offset=".325" stop-color="#ff901c"></stop>
      <stop offset=".567" stop-color="#ff8717"></stop>
      <stop offset=".781" stop-color="#ff770e"></stop>
      <stop offset=".978" stop-color="#ff6002"></stop>
      <stop offset="1" stop-color="#ff5d00"></stop>
    </radialGradient>
    <path d="M7.094 222.631c-1.845-1.716-4.857-.599-5.165 1.9A257.777 257.777 0 000 256.001c0 25.311 3.687 49.757 10.533 72.848.833 2.81 4.541 3.465 6.284 1.108 14.706-19.879 26.408-42.11 34.413-66.02a6.028 6.028 0 00-2.173-6.813 442.618 442.618 0 01-41.963-34.493z" fill="url(#f)"></path>
    <radialGradient id="g" cx="112.379" cy="393.623" r="387.37" gradientTransform="matrix(1.0039 0 0 -1.0039 .192 516.562)" gradientUnits="userSpaceOnUse">
      <stop offset="0" stop-color="#ff931e"></stop>
      <stop offset=".325" stop-color="#ff901c"></stop>
      <stop offset=".567" stop-color="#ff8717"></stop>
      <stop offset=".781" stop-color="#ff770e"></stop>
      <stop offset=".978" stop-color="#ff6002"></stop>
      <stop offset="1" stop-color="#ff5d00"></stop>
    </radialGradient>
    <path d="M175.066 379.305c0-17.565 1.76-34.859 5.189-51.684.613-3.008-1.189-5.963-4.12-6.878a440.597 440.597 0 01-40.435-14.82l-6.479-2.742c-3.646-1.543-7.766.775-8.349 4.692a429.648 429.648 0 00-4.662 63.179c0 36.003 4.484 71.313 13.134 105.315a6.01 6.01 0 002.903 3.771 254.257 254.257 0 0068.288 25.824c3.5.773 6.269-2.891 4.579-6.052-19.623-36.674-30.048-77.836-30.048-120.605z" fill="url(#g)"></path>
    <radialGradient id="h" cx="112.379" cy="393.623" r="387.37" gradientTransform="matrix(1.0039 0 0 -1.0039 .192 516.562)" gradientUnits="userSpaceOnUse">
      <stop offset="0" stop-color="#ff931e"></stop>
      <stop offset=".325" stop-color="#ff901c"></stop>
      <stop offset=".567" stop-color="#ff8717"></stop>
      <stop offset=".781" stop-color="#ff770e"></stop>
      <stop offset=".978" stop-color="#ff6002"></stop>
      <stop offset="1" stop-color="#ff5d00"></stop>
    </radialGradient>
    <path d="M98.622 371.053c0-25.321 2.113-50.32 6.301-74.875a5.995 5.995 0 00-3.121-6.323 438.743 438.743 0 01-27.646-15.876c-3.225-2.011-7.456-.513-8.769 3.052-8.971 24.366-21.681 47.289-37.823 68.071-4.795 6.173-5.851 14.508-2.468 21.555 17.714 36.896 44.009 68.888 76.301 93.393 2.539 1.927 6.103-.269 5.488-3.396-5.493-27.99-8.263-56.585-8.263-85.601z" fill="url(#h)"></path>
    <radialGradient id="i" cx="112.379" cy="393.623" r="387.37" gradientTransform="matrix(1.0039 0 0 -1.0039 .192 516.562)" gradientUnits="userSpaceOnUse">
      <stop offset="0" stop-color="#ff931e"></stop>
      <stop offset=".325" stop-color="#ff901c"></stop>
      <stop offset=".567" stop-color="#ff8717"></stop>
      <stop offset=".781" stop-color="#ff770e"></stop>
      <stop offset=".978" stop-color="#ff6002"></stop>
      <stop offset="1" stop-color="#ff5d00"></stop>
    </radialGradient>
    <path d="M63.5 188.361c0-26.81-4.448-52.599-12.641-76.673-.853-2.508-4.214-2.999-5.73-.826-15.971 22.89-29.206 52.116-37.005 80.62a10.912 10.912 0 003.178 10.934c8.768 8.008 27.374 24.79 38.64 33.438 3.555 2.729 8.704.693 9.525-3.712a238.687 238.687 0 004.033-43.781z" fill="url(#i)"></path>
  </symbol>
</svg>