<?xml version="1.0" encoding="iso-8859-1"?>
<!-- Generator: Adobe Illustrator 19.0.0, SVG Export Plug-In . SVG Version: 6.00 Build 0)  -->
<svg version="1.1" id="Capa_1" xmlns="http://www.w3.org/2000/svg" xmlns:xlink="http://www.w3.org/1999/xlink" x="0px" y="0px"
	 viewBox="0 0 511.999 511.999" style="enable-background:new 0 0 511.999 511.999;" xml:space="preserve">
<circle style="fill:#F9DCA2;" cx="223.767" cy="69.847" r="62.231"/>
<path style="fill:#E5C691;" d="M195.391,69.847c0-28.5,19.166-52.509,45.307-59.885c-5.385-1.52-11.059-2.35-16.93-2.35
	c-34.371,0-62.236,27.864-62.236,62.236s27.864,62.235,62.236,62.235c5.871,0,11.544-0.83,16.929-2.349
	C214.556,122.356,195.391,98.347,195.391,69.847z"/>
<path style="fill:#D67C05;" d="M277.133,37.814C271.602,51.9,233.94,59.542,209.005,51.9c-1.502-0.447-2.953-0.822-4.374-1.106
	c-1.177,8.444-4.384,16.238-9.124,22.875c-6.962,9.783-17.232,17.04-29.177,20.145c-3.085-7.378-4.79-15.477-4.79-23.971
	c0-34.363,27.858-62.231,62.231-62.231c5.805,0,11.427,0.792,16.755,2.283C256.003,14.208,269.044,24.357,277.133,37.814z"/>
<path style="fill:#AD5F02;" d="M195.396,69.843c0,1.289,0.041,2.557,0.112,3.826c-6.962,9.783-17.232,17.04-29.177,20.145
	c-3.085-7.378-4.79-15.477-4.79-23.971c0-34.363,27.858-62.231,62.231-62.231c5.805,0,11.427,0.792,16.755,2.283
	c0.061,0.03,0.122,0.051,0.173,0.071C214.556,17.334,195.396,41.346,195.396,69.843z"/>
<path style="fill:#F9DCA2;" d="M136.174,324.157L15.965,444.146l36.736,37.576l0.159-0.158l22.508,22.825l4.177-4.177
	c12.491-12.491,12.491-32.743,0-45.233l138.462-138.247l48.97,48.971l-54.924,54.609l36.736,37.576l0.159-0.158l22.508,22.825
	l4.177-4.177c12.454-12.454,12.488-32.624,0.106-45.123l57.129-57.129c10.26-10.26,10.26-26.896,0-37.156l-77.586-77.587
	l-0.454-55.175c-0.168-20.476,16.384-37.165,36.861-37.165h114.255c7.933,0,15.126-3.225,20.329-8.417
	c5.308-5.318,8.546-12.685,8.414-20.809c-0.258-15.81-13.638-28.276-29.45-28.276H255.282c-65.781,0-119.108,53.326-119.108,119.108
	V324.157z"/>
<g>
	<path style="fill:#E5C691;" d="M426.272,136.297c-5.203,5.193-12.395,8.417-20.329,8.417H291.689
		c-20.477,0-37.029,16.689-36.861,37.165l0.153,18.651c1.701-18.76,17.471-33.49,36.708-33.49h114.255
		c7.933,0,15.126-3.224,20.329-8.417c5.308-5.318,8.546-12.685,8.414-20.809c-0.062-3.768-0.876-7.343-2.283-10.607
		C430.95,130.624,428.859,133.705,426.272,136.297z"/>
	<path style="fill:#E5C691;" d="M270.27,457.728l-0.159,0.158l-36.736-37.576l44.276-44.021c5.876-5.843,5.89-15.346,0.03-21.206
		l-38.353-38.353l-10.664,10.648l38.323,38.323l-54.924,54.609l36.736,37.576l0.159-0.158l22.508,22.825l4.177-4.177
		c2.282-2.282,4.143-4.825,5.591-7.53L270.27,457.728z"/>
	<path style="fill:#E5C691;" d="M74.181,481.563l-0.159,0.158l-36.736-37.575l120.21-119.988v-95.51
		c0-65.781,53.326-119.108,119.108-119.108h-21.312c-65.781,0-119.108,53.326-119.108,119.108v95.51L15.974,444.146l36.736,37.576
		l0.159-0.158l22.508,22.825l4.177-4.177c2.282-2.282,4.143-4.825,5.591-7.53L74.181,481.563z"/>
</g>
<g>
	<polygon style="fill:#EAEAE4;" points="303.608,307.717 256.305,355.02 256.305,355.03 218.004,316.729 152.941,381.69 
		126.423,355.182 115.767,344.526 136.175,324.158 136.175,270.725 136.186,270.725 157.498,268.695 255.28,259.379 	"/>
	<path style="fill:#EAEAE4;" d="M275.74,431.256c12.381,12.493,12.351,32.668-0.101,45.121l-4.181,4.181l-22.51-22.834l-0.162,0.162
		l-26.184-26.782l-10.504-10.747l-0.041-0.051l40.686-40.442l4.851-4.821l0.832,0.842l36.342,36.342L275.74,431.256z"/>
</g>
<path style="fill:#75C92D;" d="M254.823,204.211l0.457,55.168l-97.782,9.316l-21.322,2.03v-42.076
	c0-40.047,19.759-75.475,50.063-97.062c0,0.376-0.03,7.622,2.507,16.644c5.328,18.988,21.992,45.831,74.034,32.8
	C257.746,187.385,254.752,195.453,254.823,204.211z"/>
<path style="fill:#63AA1F;" d="M188.745,148.231c-19.414,21.19-31.248,49.424-31.248,80.418v40.047l-21.322,2.03v-42.076
	c0-40.047,19.759-75.475,50.063-97.062C186.239,131.963,186.208,139.209,188.745,148.231z"/>
<polygon style="fill:#CECECC;" points="157.498,268.695 157.498,324.158 126.423,355.182 115.777,344.536 136.175,324.158 
	136.186,324.158 136.186,270.725 "/>
<path style="fill:#EAEAE4;" d="M79.546,454.974c12.493,12.493,12.493,32.75,0,45.243l-4.181,4.171l-22.5-22.824l-0.162,0.162
	l-26.183-26.782l-10.524-10.768l-0.03-0.03l46.034-45.953l10.676,10.676l26.498,26.508L79.546,454.974z"/>
<g>
	<polygon style="fill:#CECECC;" points="268.25,385.709 222.601,431.104 212.097,420.357 252.783,379.904 252.743,379.864 
		257.594,375.043 258.426,375.885 	"/>
	<polygon style="fill:#CECECC;" points="72.675,408.868 26.519,454.943 15.995,444.176 62.029,398.223 	"/>
</g>
<circle style="fill:#EB9500;" cx="434.534" cy="258.608" r="61.531"/>
<path style="fill:#C47605;" d="M426.539,302.116c-24.031-24.031-24.031-62.994,0-87.026c7.446-7.446,16.327-12.58,25.752-15.412
	c-20.992-6.307-44.688-1.173-61.272,15.412c-24.031,24.031-24.031,62.994,0,87.026c16.585,16.585,40.281,21.719,61.272,15.412
	C442.866,314.695,433.985,309.562,426.539,302.116z"/>
<path d="M262.867,256.203l-0.428-52.058c-0.063-7.702,2.829-14.964,8.154-20.503c5.657-5.884,13.618-8.989,21.781-8.989h113.571
	c9.7,0,18.829-3.779,25.716-10.653c7.022-7.036,10.799-16.38,10.637-26.31c-0.322-19.72-16.947-35.763-37.061-35.763h-42.149
	c-4.204,0-7.611,3.408-7.611,7.611l0,0c0,4.204,3.408,7.611,7.611,7.611h42.148c11.856,0,21.652,9.326,21.84,20.788
	c0.094,5.777-2.104,11.213-6.179,15.297c-4.003,3.995-9.312,6.194-14.952,6.194H291.689c-11.948,0-23.162,4.672-31.576,13.155
	c-0.522,0.526-1.028,1.063-1.519,1.609c-21.201,4.9-37.524,3.03-48.514-5.605c-12.287-9.655-15.269-25.768-15.992-33.095
	c17.579-11.587,38.612-18.343,61.195-18.343h72.285c4.204,0,7.611-3.408,7.611-7.611l0,0c0-4.204-3.408-7.611-7.611-7.611h-42.915
	c5.386-10,8.264-21.253,8.264-32.784C292.916,31.018,261.898,0,223.771,0c-38.133,0-69.156,31.018-69.156,69.145
	c0,22.063,10.735,42.749,28.146,55.648c-32.744,22.933-54.199,60.933-54.199,103.854V321l-31.5,31.443
	c-2.976,2.969-2.98,7.789-0.01,10.764l0,0c2.969,2.976,7.789,2.98,10.764,0.01l7.949-7.935l26.409,26.409l-42.992,42.925
	l-26.405-26.405l10.052-10.03c2.976-2.969,2.981-7.788,0.012-10.764l0,0c-2.969-2.976-7.788-2.981-10.764-0.012l-61.491,61.354
	c-2.954,2.947-2.984,7.725-0.066,10.709l59.445,60.285c1.418,1.438,3.354,2.248,5.374,2.248h0.027c2.019,0,3.954-0.802,5.381-2.229
	l4.178-4.177c13.596-13.596,15.218-34.703,4.866-50.092l128.21-128.011l38.195,38.195l-49.512,49.227
	c-2.963,2.946-2.997,7.73-0.076,10.719l59.447,60.285c1.419,1.438,3.354,2.248,5.375,2.248h0.026c2.019,0,3.955-0.802,5.382-2.23
	l4.177-4.177c13.533-13.533,15.193-34.588,4.945-49.963l52.288-52.289c13.211-13.212,13.211-34.708,0-47.92L262.867,256.203z
	 M223.771,15.223c17.866,0,33.721,8.74,43.538,22.162c-7.948,6.856-34.541,13.285-55.943,6.731c-1.665-0.502-3.341-0.93-4.981-1.269
	c-2.058-0.425-4.207,0.021-5.926,1.233c-1.719,1.212-2.861,3.084-3.152,5.168c-2.12,15.185-11.887,27.871-25.584,33.901
	c-1.228-4.514-1.884-9.217-1.884-14.004C169.838,39.412,194.033,15.223,223.771,15.223z M177.743,97.137
	c15.974-6.984,28.003-20.671,32.863-37.453c12.205,2.966,27.213,3.091,40.98,0.263c6.346-1.304,15.75-3.946,22.952-8.959
	c2.037,5.677,3.154,11.789,3.154,18.158c0,11.899-3.936,23.41-11.125,32.784h-11.285c-20.932,0-40.691,5.106-58.107,14.131
	C189.105,111.468,182.462,104.89,177.743,97.137z M180.378,146.13c2.317,10.503,7.695,24.466,20.179,34.337
	c9.792,7.743,22.155,11.625,36.931,11.625c3.686,0,7.532-0.256,11.517-0.74c-1.211,4.14-1.823,8.48-1.786,12.918l0.397,48.197
	l-103.827,9.888v-33.707C143.786,195.975,157.913,166.541,180.378,146.13z M126.54,344.527l15.011-14.983
	c1.431-1.428,2.235-3.365,2.235-5.387v-46.51L252.434,267.3l40.414,40.414l-36.547,36.547l-27.339-27.34l15.452-14.421
	c3.073-2.868,3.239-7.685,0.371-10.758c-2.869-3.073-7.685-3.238-10.758-0.371l-21.213,19.797c-0.03,0.028-0.056,0.06-0.085,0.088
	c-0.032,0.031-0.068,0.058-0.099,0.089l-59.682,59.59L126.54,344.527z M74.164,460.361c9.085,9.085,9.485,23.617,1.199,33.181
	l-48.688-49.329l35.328-35.249l26.409,26.408l-14.244,14.221c-1.429,1.427-2.233,3.363-2.234,5.384
	C71.934,456.996,72.736,458.933,74.164,460.361z M270.332,436.611c8.997,9.082,9.362,23.574,1.119,33.096l-48.679-49.319
	l34.798-34.596l26.434,26.434l-13.647,13.647C267.394,428.835,267.383,433.634,270.332,436.611z M327.486,368.744l-32.718,32.718
	l-26.403-26.403l3.98-3.957c1.434-1.426,2.242-3.364,2.245-5.387c0.003-2.023-0.8-3.963-2.23-5.393l-5.296-5.296l36.547-36.547
	l23.874,23.874C334.762,349.628,334.762,361.467,327.486,368.744z"/>
<path d="M483.425,209.708c-13.06-13.06-30.425-20.254-48.894-20.254c-18.471,0-35.835,7.192-48.895,20.254
	c-13.06,13.06-20.254,30.425-20.254,48.894c0,18.471,7.192,35.835,20.254,48.895c13.48,13.48,31.187,20.22,48.894,20.22
	s35.415-6.741,48.895-20.22C510.386,280.537,510.386,236.669,483.425,209.708z M422.262,270.873
	c-11.226-11.226-25.605-18.093-41.127-19.8c1.256-9.045,4.769-17.547,10.264-24.838l75.494,75.494
	c-7.443,5.593-16.012,9.012-24.833,10.245C440.337,296.457,433.479,282.09,422.262,270.873z M402.163,215.471
	c7.292-5.495,15.792-9.008,24.838-10.264c1.716,15.524,8.578,29.901,19.803,41.125c11.215,11.215,25.58,18.079,41.098,19.806
	c-1.234,8.819-4.653,17.385-10.244,24.827L402.163,215.471z M487.865,250.798c-11.429-1.651-21.976-6.908-30.299-15.231
	c-8.333-8.333-13.595-18.891-15.235-30.328c11.443,1.649,22.007,6.911,30.329,15.233
	C481.188,228.999,486.255,239.695,487.865,250.798z M381.168,266.406c11.417,1.636,22,6.901,30.33,15.232
	c8.324,8.324,13.582,18.87,15.228,30.301c-11.105-1.611-21.799-6.679-30.325-15.205
	C388.079,288.412,382.816,277.849,381.168,266.406z"/>
<path d="M260.056,82.616v-8.689c0-4.204-3.408-7.611-7.611-7.611s-7.611,3.408-7.611,7.611v8.689c0,4.204,3.408,7.611,7.611,7.611
	S260.056,86.82,260.056,82.616z"/>
<g>
</g>
<g>
</g>
<g>
</g>
<g>
</g>
<g>
</g>
<g>
</g>
<g>
</g>
<g>
</g>
<g>
</g>
<g>
</g>
<g>
</g>
<g>
</g>
<g>
</g>
<g>
</g>
<g>
</g>
</svg>
