<svg height="512" viewBox="0 0 512 512" width="512" xmlns="http://www.w3.org/2000/svg"><g id="filled_outline" data-name="filled outline"><path d="m312 312-80-8-64-72v-24h-64a30.739 30.739 0 0 0 23.283 29.821l8.717 2.179 58.831 88.247a30.007 30.007 0 0 0 13.82 11.214l31.349 12.539z" fill="#015078"/><path d="m445 280h-61l-72 32h-23.147a60 60 0 0 0 -42.427 17.573l-30.426 30.427-104-24-40 32a28.844 28.844 0 0 0 40 8l95.775 22.1a30.01 30.01 0 0 0 16.233-.771l87.992-29.329a184.669 184.669 0 0 0 76.415-16.552l59.585-28.448z" fill="#0276b4"/><path d="m168 216h-120a8 8 0 0 1 0-16h120a8 8 0 0 1 0 16z" fill="#015078"/><path d="m27.006 411a8 8 0 0 1 -4.712-14.47l85-67a8 8 0 0 1 9.412 12.94l-85 67a7.968 7.968 0 0 1 -4.7 1.53z" fill="#0276b4"/><path d="m376 332v52l56 40 16 24 27.614-6.9a4 4 0 0 0 2.763-5.317l-8.377-21.783a12.594 12.594 0 0 0 4.785-16.431l-1-1.991a4 4 0 0 0 -5.367-1.789l-12.418 6.211-40-32v-36a20 20 0 0 0 -20-20 20 20 0 0 0 -20 20z" fill="#015078"/><path d="m448 323h-36a28.032 28.032 0 0 1 -28-28v-33a8 8 0 0 1 8-8c4.418 0 8-3.418 8 1v40a12.013 12.013 0 0 0 12 12h36a8 8 0 0 1 0 16z" fill="#fbb540"/><g fill="#b0d2fd"><circle cx="392" cy="168" r="16"/><circle cx="440" cy="112" r="16"/><circle cx="344" cy="80" r="16"/></g><path d="m416 248h64a0 0 0 0 1 0 0v32a32 32 0 0 1 -32 32 32 32 0 0 1 -32-32v-32a0 0 0 0 1 0 0z" fill="#015078"/><path d="m448 200a32 32 0 0 1 32 32v16a0 0 0 0 1 0 0h-64a0 0 0 0 1 0 0v-16a32 32 0 0 1 32-32z" fill="#0276b4"/><path d="m408 280h24l16-8 16 8h24v-32h-80z" fill="#43dcfe"/><circle cx="448" cy="312" fill="#eaeae8" r="16"/><path d="m384.959 228.911a16 16 0 0 1 16 16v24a0 0 0 0 1 0 0h-32a0 0 0 0 1 0 0v-24a16 16 0 0 1 16-16z" fill="#cbcbcb" transform="matrix(.434 .901 -.901 .434 442.37 -205.901)"/><path d="m339.262 219.75a32 32 0 0 1 32 32v64a0 0 0 0 1 0 0h-64a0 0 0 0 1 0 0v-64a32 32 0 0 1 32-32z" fill="#eaeae8" transform="matrix(.434 .901 -.901 .434 433.46 -154.05)"/><path d="m249.589 279.5h64a0 0 0 0 1 0 0 32 32 0 0 1 -32 32 32 32 0 0 1 -32-32 0 0 0 0 1 0 0z" fill="#cbcbcb" transform="matrix(.434 .901 -.901 .434 425.793 -86.362)"/><path d="m353.141 304.588a8 8 0 0 1 -7.215-4.533l-27.746-57.673a8 8 0 0 1 14.418-6.937l27.746 57.673a8 8 0 0 1 -7.2 11.47z" fill="#e82f3e"/><path d="m480 248h8v32h-8z" fill="#2fbbdf"/><path d="m488 240v-8a40 40 0 0 0 -80 0v1.106a24.033 24.033 0 0 0 -29.841-7.556l-3.065 1.474a40.3 40.3 0 0 0 -8.188-3.961 39.737 39.737 0 0 0 -30.567 1.705l-57.673 27.746a40.065 40.065 0 0 0 -21.407 45.972l-21.359-2.135-59.9-67.393v-20.958a8 8 0 0 0 -8-8h-120a8 8 0 0 0 0 16h48.83a38.679 38.679 0 0 0 28.513 29.582l5.716 1.429 57.116 85.674a37.838 37.838 0 0 0 17.5 14.2l8.656 3.463-.857.857-99.68-23a7.972 7.972 0 0 0 -6.723 1.493c-.01.008-.018.011-.028.019l-85 67a8 8 0 1 0 9.9 12.566l38.725-30.525a36.925 36.925 0 0 0 42.652 5.759l92.648 21.38a37.975 37.975 0 0 0 20.561-.977l86.783-28.92a191.892 191.892 0 0 0 54.688-8.325v16.325a8 8 0 0 0 3.35 6.51l54.807 39.148 15.187 22.78a8 8 0 0 0 8.6 3.323l32-8a8 8 0 0 0 5.215-11.339l-6.215-12.422 6.211-12.422a8 8 0 0 0 0-7.156l-8-16a8 8 0 0 0 -10.733-3.577l-11.422 5.711-33-26.4v-20.096l18.929-8.6a23.991 23.991 0 0 0 29.071-23.46 40.072 40.072 0 0 0 15.191-24h.809a8 8 0 0 0 8-8v-32a8 8 0 0 0 -8-8zm-22.111 32-14.311-7.155a8 8 0 0 0 -7.156 0l-14.311 7.155h-14.111v-16h64v16zm-43.381 51h4.172q.478.923 1.032 1.8l-4.219 1.918a27.727 27.727 0 0 0 -.985-3.718zm-10.508-16a12.013 12.013 0 0 1 -12-12v-15a8 8 0 0 0 8 8h.809a40.066 40.066 0 0 0 9.7 19zm12-75a24 24 0 0 1 48 0v8h-48zm-32.791 7.627a7.99 7.99 0 0 1 1.854 14.155 40.179 40.179 0 0 0 -3.337-10.31 40.825 40.825 0 0 0 -2.354-4.209 7.962 7.962 0 0 1 3.837.364zm-47.934-.441a24 24 0 1 1 20.81 43.255l-7.209 3.468-20.81-43.255zm-21.627 10.405 20.81 43.254-28.837 13.874-20.809-43.255zm-42.66 22.045 19.621 40.784a24 24 0 0 1 -19.621-40.784zm-67.365 60.4a21.9 21.9 0 0 1 -10.135-8.223l-58.832-88.248a8 8 0 0 0 -4.716-3.323l-8.716-2.179a22.707 22.707 0 0 1 -15.778-14.063h46.554v16a8 8 0 0 0 2.021 5.315l64 72a8 8 0 0 0 5.183 2.645l21.923 2.193a67.924 67.924 0 0 0 -12.357 9.764l-14.125 14.125zm100.377 27.964a8 8 0 0 0 -2.53.411l-87.992 29.33a21.994 21.994 0 0 1 -11.9.566l-95.775-22.1a7.991 7.991 0 0 0 -6.237 1.139 20.865 20.865 0 0 1 -24.063-.692l30.44-23.994 100.257 23.14a8 8 0 0 0 7.456-2.138l30.426-30.427a52.1 52.1 0 0 1 22.192-13.135 40.261 40.261 0 0 0 21.8 6.453 39.766 39.766 0 0 0 17.278-3.952l57.672-27.746a39.883 39.883 0 0 0 12.976-9.936v8.081a27.849 27.849 0 0 0 2.164 10.788 28.045 28.045 0 0 0 -18.164 26.212v18.88a176.047 176.047 0 0 1 -56 9.12zm139 46.247a8 8 0 0 0 8.576.908l8.844-4.422 2.636 5.267-6.211 12.422a8 8 0 0 0 0 7.156l3.54 7.08-16.856 4.214-12.873-19.31a8 8 0 0 0 -2.006-2.072l-52.65-37.607v-47.883a12 12 0 0 1 24 0v36a8 8 0 0 0 3 6.247zm-3-86.247a8 8 0 1 1 8-8 8.009 8.009 0 0 1 -8 8zm17.878-23.99a23.956 23.956 0 0 0 -35.756 0 24.059 24.059 0 0 1 -4.744-8.01h6.622a7.994 7.994 0 0 0 3.578-.845l12.422-6.211 12.422 6.211a7.994 7.994 0 0 0 3.578.845h6.622a24.059 24.059 0 0 1 -4.744 8.01z"/><path d="m392 192a24 24 0 1 0 -24-24 24.027 24.027 0 0 0 24 24zm0-32a8 8 0 1 1 -8 8 8.009 8.009 0 0 1 8-8z"/><path d="m440 136a24 24 0 1 0 -24-24 24.027 24.027 0 0 0 24 24zm0-32a8 8 0 1 1 -8 8 8.009 8.009 0 0 1 8-8z"/><path d="m344 104a24 24 0 1 0 -24-24 24.027 24.027 0 0 0 24 24zm0-32a8 8 0 1 1 -8 8 8.009 8.009 0 0 1 8-8z"/></g></svg>