<svg id="icons" enable-background="new 0 0 64 64" height="512" viewBox="0 0 64 64" width="512" xmlns="http://www.w3.org/2000/svg"><g><g><g><path d="m17.78 26.747c-.342 0-.675-.175-.861-.49l-1.777-3c-.281-.476-.125-1.089.351-1.37.479-.281 1.09-.124 1.37.351l1.777 3c.281.476.125 1.089-.351 1.37-.16.094-.336.139-.509.139z" fill="#545c66"/></g><g><path d="m34.999 20.753c8.81 0 14 6 14 6h-15v-5.98c.33-.01.66-.02 1-.02z" fill="#5d9cec"/></g><g><path d="m33.999 20.772v5.98l-9.01-3.971c2.46-.979 5.56-1.858 9.01-2.009z" fill="#5d9cec"/></g><g><path d="m57.989 36.753c0-2.76-2.24-5-5-5-2.761 0-5 2.24-5 5 0 .33.039.65.109.969l-.17.031h-18.01c.05-.32.08-.66.08-1 0-2.76-2.24-5-5-5s-5 2.24-5 5c0 .34.04.68.12 1h-.021-2.1l-3-2.41v-9.59h2.779 1.601s2.16-1.58 5.61-2.971l9.01 3.971h15l9 .66c2.27.379 4 2.35 4 4.729v1.611h1v4h-5.09c.052-.32.082-.66.082-1z" fill="#a0d468"/></g><g><path d="m62.002 33.144c-.553 0-1-.447-1-1 0-1.865-1.333-3.442-3.169-3.749-.545-.091-.912-.606-.821-1.151.092-.544.607-.916 1.151-.821 2.804.469 4.839 2.875 4.839 5.722 0 .551-.447.999-1 .999z" fill="#a0d468"/></g><g><path d="m62.002 34.747c-.553 0-1-.447-1-1v-1.604c0-.553.447-1 1-1s1 .447 1 1v1.604c0 .553-.447 1-1 1z" fill="#a0d468"/></g><g><path d="m63 38.745c-.553 0-1-.447-1-1v-1.997h-.602c-.553 0-1-.447-1-1s.447-1 1-1h1.602c.553 0 1 .447 1 1v2.997c0 .553-.447 1-1 1z" fill="#a0d468"/></g><g><path d="m48.09 38.745h-18.188c-.553 0-1-.447-1-1s.447-1 1-1h18.188c.553 0 1 .447 1 1s-.447 1-1 1z" fill="#a0d468"/></g><g><path d="m17.999 38.745c-.219 0-.439-.071-.624-.22l-2.998-2.401c-.432-.345-.501-.975-.155-1.405.345-.431.974-.503 1.405-.155l2.998 2.401c.432.345.501.975.155 1.405-.197.247-.487.375-.781.375z" fill="#a0d468"/></g><g><path d="m15.002 36.344c-.553 0-1-.447-1-1v-9.597c0-.553.447-1 1-1s1 .447 1 1v9.597c0 .552-.447 1-1 1z" fill="#a0d468"/></g><g><path d="m19.381 26.747h-4.379c-.553 0-1-.447-1-1s.447-1 1-1h4.379c.553 0 1 .447 1 1s-.447 1-1 1z" fill="#a0d468"/></g><g><path d="m49 27.744c-.279 0-.557-.116-.755-.343-.05-.057-5.026-5.654-13.243-5.654-8.358 0-14.965 4.759-15.03 4.807-.444.324-1.07.23-1.397-.216-.326-.445-.229-1.07.215-1.397.289-.212 7.181-5.193 16.213-5.193 9.158 0 14.53 6.085 14.754 6.344.361.417.315 1.047-.101 1.408-.19.163-.424.244-.656.244z" fill="#a0d468"/></g><g><path d="m58.001 28.408c-.024 0-.049-.001-.074-.003l-9-.66c-.551-.04-.965-.52-.924-1.07.04-.55.512-.963 1.07-.924l9 .66c.551.04.965.52.924 1.07-.038.526-.476.927-.996.927z" fill="#a0d468"/></g><g><path d="m34.002 27.747c-.553 0-1-.447-1-1v-5.979c0-.553.447-1 1-1s1 .447 1 1v5.979c0 .553-.447 1-1 1z" fill="#a0d468"/></g><path d="m18 19.748h-4c-.553 0-1 .447-1 1v1.999c0 .553.447 1 1 1h4c.553 0 1-.447 1-1v-1.999c0-.553-.447-1-1-1z" fill="#656d78"/><g><path d="m20.102 38.745h-2.102c-.553 0-1-.447-1-1s.447-1 1-1h2.102c.553 0 1 .447 1 1s-.448 1-1 1z" fill="#a0d468"/></g><g><path d="m63 38.745h-5.109c-.553 0-1-.447-1-1s.447-1 1-1h5.109c.553 0 1 .447 1 1s-.447 1-1 1z" fill="#a0d468"/></g><path d="m52.989 31.253c-3.037 0-5.5 2.464-5.5 5.5 0 .363.043.716.12 1.065.605 2.531 2.706 4.435 5.38 4.435 2.662 0 5.005-1.893 5.412-4.4.055-.352.088-.726.088-1.1 0-3.036-2.464-5.5-5.5-5.5z" fill="#656d78"/><g><path d="m52.989 34.753c1.109 0 2 .9 2 2s-.891 2-2 2c-1.101 0-2-.9-2-2s.9-2 2-2z" fill="#ccd1d9"/></g><path d="m24.999 31.253c-3.036 0-5.5 2.464-5.5 5.5 0 .374.044.748.132 1.1.616 2.508 2.706 4.4 5.368 4.4s5.005-1.893 5.412-4.4c.055-.352.088-.726.088-1.1 0-3.036-2.464-5.5-5.5-5.5z" fill="#656d78"/><g><path d="m24.999 34.753c1.109 0 2 .9 2 2s-.891 2-2 2c-1.101 0-2-.9-2-2s.899-2 2-2z" fill="#ccd1d9"/></g><path d="m62.002 31.748c-.552 0-1 .447-1 1s.448 1 1 1h1v-2z" fill="#8cc152"/></g><g><path d="m63 44.253h-62c-.553 0-1-.447-1-1s.447-1 1-1h62c.553 0 1 .447 1 1s-.447 1-1 1z" fill="#545c66"/></g><g><path d="m9.998 38.25h-6.998c-.553 0-1-.447-1-1s.447-1 1-1h6.998c.553 0 1 .447 1 1s-.447 1-1 1z" fill="#ccd1d9"/></g><g><path d="m12 34.251h-11c-.553 0-1-.447-1-1s.447-1 1-1h11c.553 0 1 .447 1 1s-.447 1-1 1z" fill="#ccd1d9"/></g><g><path d="m3.996 30.252h-.994c-.553 0-1-.447-1-1s.447-1 1-1h.994c.553 0 1 .447 1 1s-.447 1-1 1z" fill="#ccd1d9"/></g><g><path d="m12.004 30.252h-4.998c-.553 0-1-.447-1-1s.447-1 1-1h4.998c.553 0 1 .447 1 1s-.447 1-1 1z" fill="#ccd1d9"/></g><g><path d="m6.996 26.253h-5.996c-.553 0-1-.447-1-1s.447-1 1-1h5.996c.553 0 1 .447 1 1s-.447 1-1 1z" fill="#ccd1d9"/></g></g></svg>