<svg height="512" viewBox="0 0 512 512" width="512" xmlns="http://www.w3.org/2000/svg"><g id="Filled_outline" data-name="Filled outline"><path d="m55.431 366.059h113.137v67.882h-113.137z" fill="#34507b" transform="matrix(.707 -.707 .707 .707 -250.039 196.353)"/><path d="m488 24v464h-64l-93.67-240.85-18.33-47.15-288-104v-72z" fill="#f35244"/><path d="m488 116.06v371.94h-64l-93.67-240.85c58.02-29.93 112.83-72.46 157.67-131.09z" fill="#e64c3f"/><path d="m464 488h-40l-93.67-240.85-18.33-47.15-288-104v-40l376 56 13.73 80.67z" fill="#ffb531"/><path d="m464 488h-40l-93.67-240.85a478.942 478.942 0 0 0 83.4-54.48z" fill="#fcac1f"/><path d="m79.029 375.029h33.941v33.941h-33.941z" fill="#bfbfbd" transform="matrix(.707 -.707 .707 .707 -249.068 182.696)"/><path d="m103.029 399.029h33.941v33.941h-33.941z" fill="#bfbfbd" transform="matrix(.707 -.707 .707 .707 -259.009 206.696)"/><path d="m48 416-19.029 19.029a16.972 16.972 0 0 0 -4.971 12 16.971 16.971 0 0 0 16.971 16.971 16.972 16.972 0 0 0 12-4.971l19.029-19.029z" fill="#bfbfbd"/><path d="m52.971 459.029 19.029-19.029 24 24-19.029 19.029a16.972 16.972 0 0 1 -12 4.971 16.971 16.971 0 0 1 -16.971-16.971 16.972 16.972 0 0 1 4.971-12z" fill="#b0b0ae"/><g fill="#f35244"><path d="m216 408-16-48 24-24 16 48z"/><path d="m104 296 48 16 24-24-48-16z"/><path d="m140.402 298.059h79.196v67.882h-79.196z" transform="matrix(.707 -.707 .707 .707 -182.039 224.52)"/></g><path d="m100 300a16.971 16.971 0 0 0 24 0l54.343-54.343a8 8 0 0 0 0-11.314l-12.686-12.686a8 8 0 0 0 -11.314 0l-54.343 54.343a16.971 16.971 0 0 0 0 24z" fill="#fec9a3"/><path d="m212 412a16.971 16.971 0 0 0 24 0l54.343-54.343a8 8 0 0 0 0-11.314l-12.686-12.686a8 8 0 0 0 -11.314 0l-54.343 54.343a16.971 16.971 0 0 0 0 24z" fill="#fec9a3"/><path d="m208 304a22.627 22.627 0 0 0 32 0l16-16-32-32-16 16a22.627 22.627 0 0 0 0 32z" fill="#fec9a3"/><path d="m216 248 48 48 8-8a33.941 33.941 0 0 0 0-48 33.941 33.941 0 0 0 -48 0z" fill="#f98500"/><path d="m179.029 180.235h33.941v271.529h-33.941z" fill="#bfbfbd" transform="matrix(.707 -.707 .707 .707 -166.039 231.147)"/><path d="m304 400-24 24-87.18-87.18q14.625-9 28.8-19.2z" fill="#b0b0ae"/><path d="m488 16h-464a8 8 0 0 0 -8 8v72a8 8 0 0 0 5.283 7.524l176 63.556 5.434-15.049-52.482-18.952 43.684-43.679 84.749 12.623-44.325 44.325 11.314 11.314 52.706-52.706 84.75 12.622-19.2 19.2-253.853 63.461v.008a7.958 7.958 0 0 0 -3.719 2.1l-24 24a8 8 0 0 0 0 11.314l46.345 46.339-10.345 10.345a8.976 8.976 0 0 1 -12.684 0 8.98 8.98 0 0 1 0-12.686l4-4-11.314-11.316-4 4a24.958 24.958 0 0 0 28.215 40.279l14.631 4.875-14.846 14.846a8 8 0 0 0 0 11.314l42.343 42.343-20.686 20.686-12.686-12.686 10.343-10.343-11.314-11.314-10.343 10.343-12.686-12.686 10.343-10.343-11.314-11.314-83.03 83.03a24.966 24.966 0 0 0 16.711 42.6 24.966 24.966 0 0 0 42.6 16.71l99.029-99.029 14.847-14.843 4.872 14.622a24.974 24.974 0 0 0 40.282 28.224l10.346-10.343 22.343 22.343a8 8 0 0 0 11.314 0l24-24a7.937 7.937 0 0 0 2.1-3.718h.008l27.465-109.859 77.314 198.82a8 8 0 0 0 7.456 5.1h64a8 8 0 0 0 8-8v-464a8 8 0 0 0 -8-8zm-456 49.28 37.78 5.626-24.333 24.333-13.447-4.856zm101.61 61.8-71.538-25.838 27.4-27.4 84.75 12.622zm-101.61-77.98v-17.1h436.686l-71.494 71.494zm411.783 367.8-27.971 27.971-27.264-70.108 41.072-41.072zm-61.571-58.429-27.264-70.108 57.217-57.217 14.164 83.209zm-33.6-86.4-2.669-6.864 29.28-117.119 19.487-19.488 14.164 83.209zm-12.707-32.671-14.557-37.431 31.886-31.886zm-25.968-48.648-39.252-14.174 71.235-17.809zm-163.555 110.948-9.573-3.191 3.191-3.195zm-26.382 126.987-12.686-12.687 12.686-12.686 12.687 12.686zm-24 24-12.686-12.687 12.686-12.686 12.686 12.686zm-24-49.373 12.686 12.686-12.686 12.686-12.686-12.686zm36.686-11.314-12.686 12.686-12.687-12.686 12.687-12.686zm-76.686 55.029a8.913 8.913 0 0 1 2.628-6.343l13.372-13.372 12.686 12.686-13.373 13.373a8.97 8.97 0 0 1 -15.313-6.344zm39.313 30.344a8.97 8.97 0 1 1 -12.685-12.687l13.372-13.372 12.686 12.686zm104.687-104.686-36.687-36.687 18.343-18.342 2.344-2.344 36.686 36.686-2.343 2.343zm37.5 2.5-3.191-9.573 6.377 6.386zm16.848 31.152a8.97 8.97 0 0 1 -12.686-12.686l10.338-10.339 12.686 12.686zm49.652 6.347-180.687-180.686 12.687-12.686 66.343 66.343 48 48 66.344 66.343zm-116-164-12.685-12.686 8.685-8.683 12.683 12.683zm45.372 39.314a14.532 14.532 0 0 1 4.285-10.343l10.343-10.343 20.686 20.686-10.342 10.343a14.646 14.646 0 0 1 -20.683 0l-.01-.009a14.534 14.534 0 0 1 -4.279-10.334zm17.941-40 2.344-2.343a25.941 25.941 0 1 1 36.686 36.686l-2.343 2.344-2.338-2.339-32-32h-.005zm48.687 112.686-12.685-12.686 8.685-8.683 12.683 12.683zm23.666 23.666-12.352-12.352 8.686-8.684a16.024 16.024 0 0 0 0-22.633l-12.683-12.683a16 16 0 0 0 -22.634 0l-8.683 8.686-14.343-14.343-4.978-4.978a30.442 30.442 0 0 0 12.978-7.708l10.343-10.343 2.343 2.343a8 8 0 0 0 11.314 0l8-8a41.941 41.941 0 0 0 -59.314-59.314l-8 8a8 8 0 0 0 0 11.314l2.343 2.343-10.342 10.343a30.455 30.455 0 0 0 -7.722 12.965l-4.965-4.965-14.343-14.343 8.686-8.684a16.024 16.024 0 0 0 0-22.633l-12.683-12.683a16 16 0 0 0 -22.634 0l-8.683 8.686-12.352-12.352 115.2-28.8 63.014 22.755 23.325 59.978zm122.482 76.814 24.926-24.926 7.449 43.76h-25.05zm48.605 18.834-9.809-57.63.713-.713-1-1.006-52.076-305.917 71.419-71.42v436.686z"/></g></svg>