<svg height="512" viewBox="0 0 64 64" width="512" xmlns="http://www.w3.org/2000/svg"><g id="flat"><path d="m38.757 9.343h8.485v11.314h-8.485z" fill="#ffd782" transform="matrix(.707 -.707 .707 .707 1.988 34.799)"/><path d="m45.172 4.343h5.657v11.314h-5.657z" fill="#b11e48" transform="matrix(.707 -.707 .707 .707 6.988 36.87)"/><path d="m46 12-.879.879a3 3 0 0 0 0 4.242l1.879 1.879 3-3z" fill="#394d5c"/><path d="m25.429 20.136h14.142v12.728h-14.142z" fill="#b11e48" transform="matrix(.707 -.707 .707 .707 -9.219 30.743)"/><path d="m23 27-2 2a2.715 2.715 0 0 0 0 4l10 10v5h5v-8z" fill="#394d5c"/><path d="m32 56h2v4h-2z" fill="#32b1cc"/><path d="m36 56h2v4h-2z" fill="#32b1cc"/><path d="m40 61h-10a1 1 0 0 1 -.707-.293l-2-2 1.414-1.414 1.707 1.707h9.172l1.707-1.707 1.414 1.414-2 2a1 1 0 0 1 -.707.293z" fill="#2d75bb"/><path d="m37 52h-1v-4h-5v8h8v-2a2 2 0 0 0 -2-2z" fill="#b11e48"/><path d="m11 46v-1h5v-5h-9v8h2a2 2 0 0 0 2-2z" fill="#b11e48"/><path d="m3 41h4v2h-4z" fill="#32b1cc"/><path d="m3 45h4v2h-4z" fill="#32b1cc"/><path d="m4.293 51.707-2-2a1 1 0 0 1 -.293-.707v-10a1 1 0 0 1 .293-.707l2-2 1.414 1.414-1.707 1.707v9.172l1.707 1.707z" fill="#2d75bb"/><path d="m21 33-2.625 7h-2.375v5h6l3-8z" fill="#5a6470"/><path d="m55 53h6v4h-6z" fill="#5a6470"/><path d="m4 26h14v2h-14z" fill="#32b1cc"/><path d="m2 30h15v2h-15z" fill="#32b1cc"/><path d="m30.5 7.123h2.001v46.755h-2.001z" fill="#f9bb4b" transform="matrix(.749 -.663 .663 .749 -12.303 28.554)"/><path d="m33 17-7-7-9 9a2.12 2.12 0 0 0 0 3 2.12 2.12 0 0 0 3 0l6-6 4 4z" fill="#da1c4b"/><path d="m42 26 2.651 14.139a2.01 2.01 0 0 1 -1.488 2.32 2.009 2.009 0 0 1 -2.477-1.665l-1.686-11.794z" fill="#da1c4b"/><path d="m49.2 51.51-2.948-2.847 7.748-7.663 3 2c1.047.836.483 3.145-1 4z" fill="#394d5c"/></g></svg>