<svg height="512" viewBox="0 0 512 512" width="512" xmlns="http://www.w3.org/2000/svg"><g id="filled_outline" data-name="filled outline"><path d="m376 96-25.77 9.3c-14.8 2.466-29.768-1.3-44.766-1.3h-1.464v-36a36 36 0 0 1 36-36 36 36 0 0 1 36 36z" fill="#d18d28"/><path d="m352 120a24 24 0 0 1 -24-24v-16a79.264 79.264 0 0 0 43.969-13.313l4.031-2.687 8 24-8 8a24 24 0 0 1 -24 24z" fill="#fdc9a6"/><path d="m416 176h32v40h-40l-75.015-42.866 23.015-45.134z" fill="#cbcbcb"/><path d="m448 176 16-8 8 8h16v40h-40z" fill="#02a437"/><path d="m309 104h-77l-72 32 24 32 48-24h66z" fill="#a8a8a8"/><path d="m128 168h24v16h16l16-16-24-32h-32z" fill="#02a437"/><path d="m232 200-56 56-80-16v48l79.507 14.456a30 30 0 0 0 16.508-1.662l38.431-15.513z" fill="#027e2a"/><path d="m232 200-8.846 6.635a47.607 47.607 0 0 0 -18.4 45.913 47.608 47.608 0 0 0 19.289 30.914l39.957 28.538v96h48v-96.918a30 30 0 0 0 -3.167-13.416l-20.833-41.666z" fill="#02a437"/><g fill="#fbb540"><path d="m327.994 482c-3.585 0-6.847 3.573-7.755-.062l-8-32a8 8 0 1 1 15.522-3.88l8 32c1.072 4.286-1.534 2.629-5.821 3.7a8.007 8.007 0 0 1 -1.946.242z"/><path d="m295.994 486c-3.585 0-6.847-.427-7.755-4.062l-8-32a8 8 0 1 1 15.522-3.88l8 32c1.072 4.286-1.534 4.629-5.821 5.7-.651.166-1.304 2.242-1.946 2.242z"/><path d="m256.006 486c-.643 0-1.295-1.078-1.946-1.241-4.287-1.072-6.893-2.415-5.821-6.7l8-32a8 8 0 1 1 15.522 3.88l-8 32c-.908 3.636-4.17 4.061-7.755 4.061z"/><path d="m23.994 312.71c-3.585 0-.847-2.427-1.755-6.062-1.072-4.286-4.466-8.629-.179-9.7l32-8a8 8 0 1 1 3.88 15.522l-32 8a8.007 8.007 0 0 1 -1.946.24z"/><path d="m23.994 280.71c-3.585 0-3.847-2.427-4.755-6.062-1.072-4.286-1.466-8.629 2.821-9.7l32-8a8 8 0 0 1 3.88 15.522l-32 8a8.007 8.007 0 0 1 -1.946.24z"/><path d="m64.006 250.71a8 8 0 0 1 -1.946-.241l-40-10c-4.287-1.072-2.893-5.415-1.821-9.7s1.418-6.892 5.7-5.821l40 10a8 8 0 0 1 -1.934 15.763z"/></g><path d="m328 104h-32l-16 72-48 24 56 56 1.028-.857a327.665 327.665 0 0 0 76.666-92.592l10.306-18.551-24-24z" fill="#cbcbcb"/><path d="m256 408v40h72v-24l-16-16z" fill="#cbcbcb"/><path d="m96 233.708h-40v71h24l16-16z" fill="#cbcbcb"/><path d="m336 488h-88a7.994 7.994 0 0 1 -3.578-.845l-16-8a8 8 0 1 1 7.156-14.31l14.311 7.155h82.8l13.656-13.657a8 8 0 0 1 11.314 11.314l-16 16a8 8 0 0 1 -5.659 2.343z" fill="#d18d28"/><path d="m40 336.708a7.974 7.974 0 0 1 -5.657-2.343l-16-16a8 8 0 0 1 -2.343-5.657v-88a7.994 7.994 0 0 1 .845-3.578l8-16a8 8 0 0 1 14.31 7.156l-7.155 14.314v82.8l13.657 13.656a8 8 0 0 1 -5.657 13.652z" fill="#d18d28"/><path d="m34.343 334.365a8 8 0 0 0 11.314-11.314l-12.409-12.409 15.058-3.765a8 8 0 0 0 7.694 5.831h24a8 8 0 0 0 5.657-2.343l12.831-12.83 75.588 12.792a37.964 37.964 0 0 0 20.909-2.105l31.986-12.794c.013-.006.025-.013.039-.018l28.99 20.707v130.9l-6.231 24.923-14.191-7.095a8 8 0 1 0 -7.156 14.31l16 8a7.994 7.994 0 0 0 3.578.845h88a8 8 0 0 0 5.657-2.343l16-16a8 8 0 0 0 -11.314-11.314l-12.409 12.409-3.765-15.058a8 8 0 0 0 5.831-7.694v-24a8 8 0 0 0 -2.343-5.657l-13.657-13.657v-93.6a38.193 38.193 0 0 0 -4.012-16.994l-18.025-36.051a334.157 334.157 0 0 0 56.988-63.141l49.08 28.046a7.992 7.992 0 0 0 3.969 1.054h80a8 8 0 0 0 8-8v-40a8 8 0 0 0 -8-8h-12.687l-5.656-5.657a8 8 0 0 0 -9.235-1.5l-14.311 7.157h-27.3l-37.458-29.966-13.978-13.978a32.059 32.059 0 0 0 16.435-24.556l5.847-5.847a8 8 0 0 0 1.933-8.187l-8-24c-.034-.1-.081-.2-.119-.3a44 44 0 0 0 -87.471 6.834v28h-64a8.007 8.007 0 0 0 -3.249.689l-70.451 31.311h-30.3a8 8 0 0 0 -8 8v32a8 8 0 0 0 8 8h16v8a8 8 0 0 0 8 8h16a8 8 0 0 0 5.657-2.343l15.083-15.083 45.149-22.574h43.249l-4.121 18.548-44.587 22.292-10.076 7.4a55.661 55.661 0 0 0 -15.149 17.254c-.029.028-.06.052-.089.08l-29.776 29.773-75.711-14.472-.046-.009-.081-.015c-.088-.018-.175-.023-.263-.038-.158-.024-.316-.051-.477-.066-.2-.021-.409-.027-.613-.031-.05 0-.1-.008-.149-.008h-.046c-.037 0-.072 0-.108 0h-38.863l-24.923-6.231 7.095-14.191a8 8 0 0 0 -14.31-7.156l-8 16a7.994 7.994 0 0 0 -.845 3.578v88a8 8 0 0 0 2.343 5.657zm-2.343-55.411 16-4v15.508l-16 4zm16-20.492-16 4v-19.508l16 4zm272 168.851v12.687h-48v-24h36.687zm-17.754 44.687-4-16h15.508l4 16zm-32-16h11.508l4 16h-19.508zm192.174-278.266 3.923 3.923a8 8 0 0 0 5.657 2.343h8v24h-24v-27.056zm-46.42 6.266h24v24h-29.875l-46.35-26.486q4.634-7.41 8.913-15.078l5.708-10.275 32.604 26.086a8 8 0 0 0 5 1.753zm-45.657-93.657a8 8 0 0 0 -2.343 5.657 16 16 0 0 1 -32 0v-8.364a86.864 86.864 0 0 0 35.665-11.343l3.182 9.546zm-58.343-22.343a28 28 0 0 1 54.956-7.6 71.026 71.026 0 0 1 -38.956 11.6 8 8 0 0 0 -8 8v16h-8zm-147.313 108h-4.687v-8a8 8 0 0 0 -8-8h-16v-16h20l17.437 23.249zm67.313-40a7.994 7.994 0 0 0 -3.578.845l-42.028 21.013-9.313-12.417-4.656-6.209 61.275-27.232h52.33l-5.333 24zm51.578 47.155a8 8 0 0 0 4.232-5.42l14.607-65.735h21.888a32.048 32.048 0 0 0 24.184 15.8l17.587 17.587-7.376 13.279a318.363 318.363 0 0 1 -70.248 86.472l-42.947-42.947zm-55.625 29.88 3.3-2.472 50.176 50.176 20.253 40.505a22.111 22.111 0 0 1 2.318 9.838v88.918h-32v-88a8 8 0 0 0 -3.35-6.51l-39.95-28.538a39.608 39.608 0 0 1 -.744-63.917zm-53.453 50.822a7.993 7.993 0 0 0 7.159-2.2l14.508-14.508a56.436 56.436 0 0 0 .7 6.714 55.2 55.2 0 0 0 15.52 30.166l-23.343 9.337a22.074 22.074 0 0 1 -12.2 1.2l-72.844-12.326v-31.858zm-110.5-15.149h24v36.692l-11.313 11.308h-12.687z"/></g></svg>