<svg viewBox="0 0 480 480.06632" xmlns="http://www.w3.org/2000/svg"><path d="m.03125 392.066406h480v88h-480zm0 0" fill="#b1d3ee"/><path d="m458.234375 399.929688c7.808594-.6875 13.796875-7.226563 13.796875-15.0625v-1.601563c0-8.394531-6.804688-15.199219-15.199219-15.199219h-88.800781l74.769531 23.007813c5.730469 1.792969 10.996094 4.8125 15.433594 8.855469zm0 0" fill="#3771ad"/><path d="m321.503906 175.425781c-.976562-4.894531-1.46875-9.871093-1.472656-14.863281v-40.496094c0-17.671875-14.324219-32-32-32l-5.476562 5.480469c-21.902344 22.226563-34.285157 52.113281-34.523438 83.320313v14.558593c.003906 21.363281 5.8125 42.324219 16.800781 60.640625l1.503907 2.503906c3.730468 6.214844 5.699218 13.328126 5.695312 20.574219v55.699219c.003906 8.464844-3.363281 16.585938-9.351562 22.574219l-14.648438 14.648437h56v-86.113281c.824219-4.914063 3.015625-9.5 6.320312-13.230469 7.105469-9.769531 17.679688-20.839844 17.679688-28.65625 0 0-.484375-24.574218-1.460938-29.472656zm0 0" fill="#fff2d9"/><path d="m328.03125 48.066406c0 22.089844-17.90625 40-40 40-22.089844 0-40-17.910156-40-40s17.910156-40 40-40c22.09375 0 40 17.910156 40 40zm0 0" fill="#fff2d9"/><path d="m458.234375 399.929688c-.464844.039062-.90625.136718-1.378906.136718.472656 0 .914062-.097656 1.378906-.136718-4.4375-4.042969-9.703125-7.0625-15.433594-8.855469l-74.769531-23.007813 22.722656 73.839844c.40625 0 .878906 0 1.277344.046875-.398438 0-.871094 0-1.277344-.046875l.289063.929688c5.34375 17.375 21.394531 29.230468 39.574219 29.230468 17.15625.046875 32.558593-10.519531 38.691406-26.542968 6.132812-16.023438 1.726562-34.167969-11.074219-45.59375zm0 0" fill="#f9a419"/><path d="m40.03125 112.066406h137.601562c8.578126-14.855468 8.574219-33.160156-.007812-48.011718-8.582031-14.855469-24.4375-24-41.59375-23.988282-.269531 0-.535156 0-.796875 0-4.089844-20.140625-22.773437-33.902344-43.222656-31.835937-20.445313 2.0625-36 19.285156-35.980469 39.835937.066406 1.574219.222656 3.140625.472656 4.695313-11.566406-6.984375-26.28125-5.9375-36.742187 2.617187-10.460938 8.558594-14.410157 22.769532-9.859375 35.496094 4.550781 12.722656 16.617187 21.210938 30.128906 21.191406zm0 0" fill="#b1d3ee"/><path d="m368.03125 368.066406h-180.199219c-34.308593 0-68.394531-5.53125-100.941406-16.382812l-26.859375-8.960938c-4.628906-1.542968-9.71875-.765625-13.679688 2.085938-3.960937 2.851562-6.3125 7.433594-6.320312 12.3125.011719 6.539062 4.199219 12.335937 10.402344 14.402344l36.480468 12.160156c23.695313 7.898437 48.234376 12.992187 73.117188 15.167968l32-6.785156 40 8h144zm0 0" fill="#3771ad"/><path d="m456.832031 360.066406h-84.191406l-52.703125-90.769531 2.0625-2.636719c7.199219-9.167968 14.023438-17.84375 14.023438-26.753906-.117188-5.929688-.574219-25.6875-1.535157-30.449219l-5.144531-35.597656c-.867188-4.378906-1.304688-8.832031-1.3125-13.296875v-40.496094c-.042969-12.109375-5.597656-23.535156-15.09375-31.046875 19.183594-11.660156 27.722656-35.058593 20.5625-56.332031s-28.113281-34.746094-50.441406-32.433594c-22.328125 2.316406-40.070313 19.796875-42.714844 42.085938-2.648438 22.292968 10.507812 43.441406 31.671875 50.917968-12.292969 13.671876-21.414063 29.886719-26.71875 47.488282l-14.34375-24.679688-13.839844 8 23.519531 40.503906c-.390624 4.078126-.601562 8.183594-.601562 12.296876v14.535156c0 22.808594 6.195312 45.1875 17.929688 64.742187l1.511718 2.53125c2.988282 4.972657 4.566406 10.667969 4.558594 16.46875v55.699219c.015625 6.347656-2.507812 12.4375-7.007812 16.917969l-12.300782 12.304687h-56.890625c-33.445312 0-66.675781-5.402344-98.398437-16l-26.886719-8.960937c-12.007813-3.578125-24.683594 3.015625-28.644531 14.902343-3.957032 11.882813 2.234375 24.765626 13.988281 29.097657l36.480469 12.160156c16.703125 5.527344 33.824218 9.707031 51.199218 12.488281-11.8125 7.449219-25.582031 11.179688-39.539062 10.710938-15.664062.398437-31.039062-4.25-43.863281-13.253906-15.34375-10.464844-33.5625-15.898438-52.136719-15.542969v16c15.667969-.398438 31.042969 4.25 43.867188 13.253906 15.34375 10.464844 33.5625 15.898437 52.132812 15.542969 18.5625.347656 36.773438-5.082032 52.113281-15.542969 12.832031-9.007813 28.214844-13.65625 43.886719-13.253906 15.667969-.398438 31.046875 4.25 43.875 13.253906 15.320312 10.453125 33.511719 15.886719 52.054688 15.542969 18.570312.347656 36.789062-5.082032 52.136718-15.542969 4.085938-2.503906 8.296875-4.792969 12.625-6.855469h19.246094l7.929688 25.769532c-17.140626.4375-33.796876 5.773437-48 15.375-12.847657 9.011718-28.25 13.660156-43.9375 13.253906-15.664063.398437-31.039063-4.25-43.863282-13.253906-15.324218-10.453126-33.519531-15.882813-52.066406-15.542969-18.5625-.347657-36.777344 5.082031-52.117188 15.542969-12.828124 9.007812-28.210937 13.652343-43.882812 13.253906-15.664062.398437-31.039062-4.25-43.863281-13.253906-15.34375-10.464844-33.5625-15.898438-52.136719-15.542969v16c15.667969-.398438 31.042969 4.25 43.867188 13.253906 15.34375 10.464844 33.5625 15.898437 52.132812 15.542969 18.5625.347656 36.773438-5.082032 52.113281-15.542969 12.832031-9.007813 28.214844-13.65625 43.886719-13.253906 15.667969-.398438 31.046875 4.25 43.875 13.253906 15.320312 10.453125 33.511719 15.886719 52.054688 15.542969 18.570312.347656 36.785156-5.082032 52.136718-15.535156 12.84375-9.019532 28.246094-13.671876 43.933594-13.261719.425781 0 .800781 0 1.195312.046875 7.265626 17.367187 23.785157 29.085937 42.578126 30.199218 18.796874 1.113282 36.585937-8.566406 45.851562-24.957031s8.394531-36.625-2.246094-52.15625c5.441406-4.363281 8.613282-10.957031 8.621094-17.933593v-1.601563c0-12.8125-10.386719-23.199219-23.199219-23.199219zm7.199219 23.199219v1.601563c-.027344 2.621093-1.496094 5.019531-3.820312 6.230468-4.542969-3.410156-9.636719-6.011718-15.058594-7.695312l-23.917969-7.335938h35.597656c3.976563 0 7.199219 3.222656 7.199219 7.199219zm-109.894531-23.199219h-42.105469v-72.503906zm-98.105469-312c0-17.671875 14.328125-32 32-32 17.675781 0 32 14.328125 32 32s-14.324219 32-32 32c-17.671875 0-32-14.328125-32-32zm32.167969 51.144532 2.945312-2.945313c11.953125 1.5625 20.890625 11.746094 20.886719 23.800781v40.496094c-.003906 5.371094.511719 10.730469 1.546875 16l5.144531 35.59375c.511719 2.589844 1.078125 16.582031 1.300782 27.902344-1.941407 5.304687-4.910157 10.175781-8.742188 14.328125l-23.25-40v-70.320313h-16v42.726563l-14.78125-25.453125c3.265625-23.53125 14.132812-45.351563 30.949219-62.128906zm-15 151.253906-1.511719-2.519532c-10.242188-17.074218-15.65625-36.613281-15.65625-56.527343v-.304688l44.875 77.28125c-2.863281 3.988281-4.550781 8.699219-4.875 13.601563v78.070312h-28.6875l.992188-.992187c7.515624-7.472657 11.726562-17.636719 11.695312-28.230469v-55.699219c0-8.691406-2.359375-17.222656-6.832031-24.679687zm14.761719 164c-10.839844.347656-21.613282-1.84375-31.457032-6.398438h62.9375c-9.851562 4.554688-20.632812 6.746094-31.480468 6.398438zm-61.289063-22.398438c-10.992187-4.457031-22.777344-6.632812-34.640625-6.398437-10.777344-.191407-21.503906 1.558593-31.660156 5.175781-24.144532-2.152344-47.953125-7.113281-70.945313-14.777344l-36.480469-12.160156c-2.917968-.976562-4.894531-3.703125-4.914062-6.785156.011719-2.300782 1.125-4.460938 2.992188-5.808594 1.871093-1.347656 4.269531-1.71875 6.457031-1l26.878906 8.960938c33.363281 11.132812 68.304687 16.804687 103.472656 16.792968h174.289063l4.929687 16zm203.945313 72c-14.683594.054688-27.664063-9.535156-31.929688-23.585937l-18.558594-60.324219 60.320313 18.558594c15.800781 4.867187 25.667969 20.554687 23.210937 36.90625-2.460937 16.351562-16.507812 28.445312-33.042968 28.445312zm0 0"/><path d="m40.03125 120.066406h137.601562c2.859376 0 5.5-1.523437 6.929688-4 9.527344-16.503906 10.007812-36.722656 1.273438-53.664062-8.738282-16.9375-25.488282-28.269532-44.457032-30.078125-7.265625-20.855469-27.820312-34.058594-49.808594-32-21.984374 2.058593-39.726562 18.855469-42.992187 40.695312-2.804687-.632812-5.671875-.949219-8.546875-.953125-22.089844 0-40 17.910156-40 40s17.910156 40 40 40zm0-64c4.363281.015625 8.632812 1.242188 12.339844 3.542969 2.617187 1.589844 5.914062 1.542969 8.484375-.121094 2.574219-1.660156 3.972656-4.644531 3.601562-7.6875l-.183593-1.335937c-.132813-.792969-.214844-1.59375-.242188-2.398438.003906-16.425781 12.445312-30.179687 28.785156-31.832031 16.34375-1.648437 31.28125 9.339844 34.570313 25.433594.757812 3.722656 4.035156 6.398437 7.839843 6.398437h.925782c13.472656.035156 26.023437 6.855469 33.386718 18.136719 7.367188 11.28125 8.554688 25.515625 3.167969 37.863281h-132.675781c-13.253906 0-24-10.746094-24-24s10.746094-24 24-24zm0 0"/><path d="m368.03125 88.066406h56v16h-56zm0 0"/><path d="m440.03125 88.066406h16v16h-16zm0 0"/><path d="m424.03125 120.066406h24v16h-24zm0 0"/><path d="m464.03125 120.066406h16v16h-16zm0 0"/></svg>