<svg id="american_x5F_player" enable-background="new 0 0 300 300" height="512" viewBox="0 0 300 300" width="512" xmlns="http://www.w3.org/2000/svg"><g><circle cx="167.672" cy="155.15" fill="#edebdc" r="92"/><g fill="#4c241d"><path d="m67.672 47.15c-2.211 0-4-1.791-4-4v-8c0-2.209 1.789-4 4-4s4 1.791 4 4v8c0 2.209-1.789 4-4 4z"/><path d="m67.672 71.15c-2.211 0-4-1.791-4-4v-8c0-2.209 1.789-4 4-4s4 1.791 4 4v8c0 2.209-1.789 4-4 4z"/><path d="m59.672 55.15h-8c-2.211 0-4-1.791-4-4s1.789-4 4-4h8c2.211 0 4 1.791 4 4s-1.789 4-4 4z"/><path d="m83.672 55.15h-8c-2.211 0-4-1.791-4-4s1.789-4 4-4h8c2.211 0 4 1.791 4 4s-1.789 4-4 4z"/><path d="m213.672 59.15c-7.719 0-14-6.281-14-14s6.281-14 14-14 14 6.281 14 14-6.282 14-14 14zm0-20c-3.309 0-6 2.691-6 6s2.691 6 6 6 6-2.691 6-6-2.692-6-6-6z"/><circle cx="264" cy="85.542" r="4.276"/><circle cx="36" cy="117.542" r="4.276"/></g><g><path d="m224.382 144.718-7.789-11.545c-5.583-8.275-3.4-19.508 4.875-25.091l8.229-5.552c7.325-4.942 17.27-3.01 22.212 4.315 4.942 7.325 3.01 17.27-4.315 22.212z" fill="#ffe8dc"/><path d="m224.383 148.719c-.254 0-.508-.023-.762-.074-1.043-.201-1.961-.809-2.555-1.689l-7.789-11.545c-6.805-10.088-4.133-23.836 5.953-30.645l8.23-5.551c9.137-6.164 21.598-3.748 27.766 5.395s3.746 21.598-5.395 27.766l-23.211 15.66c-.667.448-1.445.683-2.237.683zm14.246-44.92c-2.309 0-4.641.662-6.691 2.049l-8.23 5.551c-6.434 4.34-8.137 13.105-3.797 19.539l5.551 8.229 19.895-13.424c5.488-3.699 6.938-11.174 3.238-16.66-2.318-3.431-6.107-5.284-9.966-5.284z" fill="#4c241d"/></g><g><path d="m109.198 219.088 12.594-67.21-23.508-7.06-11.796 70.606z" fill="#fc8c29"/><path d="m109.203 223.088c-.211 0-.426-.016-.641-.051l-22.711-3.664c-1.051-.17-1.992-.752-2.613-1.617-.621-.863-.871-1.941-.695-2.992l11.797-70.605c.188-1.133.855-2.129 1.832-2.736s2.164-.766 3.266-.434l23.508 7.061c1.957.588 3.156 2.557 2.777 4.566l-12.594 67.209c-.36 1.917-2.036 3.263-3.926 3.263zm-18.106-10.973 14.887 2.402 11.215-59.842-15.719-4.721z" fill="#4c241d"/></g><g><path d="m86.488 215.424-22.872 15.586c-7.723 5.263-13.384 13.041-16.017 22.008l-3.474 11.83 65.074-45.761z" fill="#ffe8dc"/><path d="m44.125 268.85c-.816 0-1.633-.25-2.328-.748-1.383-.99-1.988-2.746-1.512-4.379l3.473-11.83c2.891-9.832 9.145-18.42 17.605-24.186l22.871-15.588c.848-.574 1.879-.807 2.891-.645l22.711 3.664c1.605.26 2.895 1.465 3.262 3.051.363 1.586-.266 3.234-1.598 4.17l-65.074 45.762c-.692.486-1.497.729-2.301.729zm43.3-49.223-21.555 14.689c-6.941 4.729-12.066 11.771-14.438 19.832l-.246.846 47.668-33.523z" fill="#4c241d"/></g><g><path d="m183.485 79.301c-3.1-7.232-10.532-11.618-18.362-10.835l-55.744 5.574c-1.099.11-2.116.627-2.853 1.45-2.587 2.891-.458 7.474 3.42 7.361l54.209-1.579 3.565 14.264 20.132-6.04z" fill="#ffe8dc"/><path d="m167.722 99.535c-.688 0-1.371-.178-1.977-.523-.953-.541-1.641-1.445-1.902-2.506l-2.789-11.143-50.992 1.486c-3.488.055-6.441-1.768-7.879-4.871-1.441-3.102-.918-6.611 1.363-9.158 1.402-1.568 3.332-2.551 5.434-2.76l55.746-5.574c9.668-.955 18.633 4.361 22.434 13.24l4.371 10.193c.449 1.047.43 2.236-.051 3.27-.484 1.033-1.383 1.811-2.477 2.139l-20.133 6.039c-.374.112-.761.168-1.148.168zm-3.566-22.264c1.832 0 3.434 1.244 3.879 3.029l2.551 10.199 11.828-3.547-2.605-6.076s0 0 0-.002c-2.426-5.656-8.207-9.066-14.285-8.428l-55.746 5.574c-.34.215-.453.342-.34.59.117.246.281.254.395.242l54.207-1.58c.038-.001.077-.001.116-.001z" fill="#4c241d"/></g><g><path d="m128.852 201.303-41.94 5.242c-9.427 1.178-18.192 5.465-24.909 12.183l-3.757 3.757 87.473-5.832c9.187-.612 15.182-9.91 11.949-18.531l-7.587-20.232-30.942 8.841z" fill="#ffe8dc"/><path d="m58.246 226.484c-1.562 0-2.992-.912-3.645-2.348-.688-1.518-.363-3.303.816-4.482l3.758-3.756c7.305-7.307 16.977-12.039 27.242-13.322l35.516-4.439-6.121-9.186c-.707-1.062-.867-2.4-.426-3.6.441-1.197 1.426-2.115 2.656-2.465l30.941-8.842c1.996-.576 4.113.49 4.844 2.441l7.586 20.232c1.988 5.307 1.367 11.08-1.703 15.842-3.07 4.76-8.074 7.707-13.727 8.084l-87.473 5.83c-.088.009-.178.011-.264.011zm67.262-37.412 6.672 10.012c.77 1.154.887 2.623.309 3.883-.578 1.262-1.766 2.133-3.141 2.305l-41.938 5.242c-6.559.82-12.828 3.34-18.129 7.227l76.172-5.076c3.102-.209 5.848-1.826 7.535-4.439 1.684-2.615 2.027-5.785.934-8.697l-6.289-16.777z" fill="#4c241d"/></g><g><path d="m199.459 151.878v-26.679c0-5.69-1.155-11.321-3.397-16.552l-8.208-19.152-20.132 6.04 3.495 13.979-59.333 19.777c-12.79 4.263-18.024 19.521-10.546 30.738l17.801 26.701 30.942-8.841-7.107-18.952z" fill="#fc8c29"/><path d="m119.14 190.732c-1.312 0-2.574-.648-3.328-1.781l-17.805-26.703c-4.262-6.393-5.273-14.227-2.781-21.494s8.102-12.828 15.391-15.258l55.82-18.605-2.594-10.385c-.52-2.074.684-4.188 2.73-4.803l20.133-6.039c1.969-.576 4.023.391 4.824 2.256l8.207 19.152c2.469 5.762 3.723 11.859 3.723 18.127v26.68c0 2.018-1.504 3.719-3.504 3.969l-51.461 6.432 5.332 14.207c.391 1.045.328 2.207-.176 3.205-.5.996-1.398 1.738-2.473 2.045l-30.941 8.842c-.362.103-.729.153-1.097.153zm53.391-92.462 2.566 10.273c.508 2.027-.633 4.104-2.613 4.766l-59.336 19.777c-4.902 1.635-8.676 5.375-10.355 10.264-1.676 4.891-.996 10.16 1.871 14.461l16.184 24.273 23.965-6.848-5.586-14.893c-.43-1.146-.309-2.426.324-3.475.633-1.047 1.711-1.746 2.926-1.898l52.984-6.623v-23.148c0-5.178-1.035-10.215-3.074-14.975l-6.801-15.871zm26.93 53.609h.039z" fill="#4c241d"/></g><g><ellipse cx="192.398" cy="162.469" fill="#914d41" rx="28.243" ry="17.652"/><path d="m192.398 184.121c-18.078 0-32.242-9.512-32.242-21.652s14.164-21.65 32.242-21.65 32.242 9.51 32.242 21.65-14.164 21.652-32.242 21.652zm0-35.303c-13.141 0-24.242 6.252-24.242 13.65 0 7.4 11.102 13.652 24.242 13.652s24.242-6.252 24.242-13.652c0-7.398-11.101-13.65-24.242-13.65z" fill="#4c241d"/></g><g><path d="m187.672 187.182h18.848l-4.69-14.955c-.947-3.021-3.747-5.077-6.913-5.077-4.001 0-7.245 3.244-7.245 7.245z" fill="#ffe8dc"/><path d="m206.519 191.182h-18.848c-2.211 0-4-1.791-4-4v-12.787c0-6.199 5.047-11.244 11.246-11.244 4.941 0 9.25 3.168 10.727 7.881l4.691 14.953c.383 1.215.16 2.539-.594 3.564-.753 1.027-1.948 1.633-3.222 1.633zm-14.847-8h9.402l-3.062-9.758c-.426-1.361-1.668-2.273-3.094-2.273-1.789 0-3.246 1.455-3.246 3.244z" fill="#4c241d"/></g></g></svg>