<?xml version="1.0" encoding="iso-8859-1"?>
<!-- Generator: Adobe Illustrator 19.0.0, SVG Export Plug-In . SVG Version: 6.00 Build 0)  -->
<svg version="1.1" id="Capa_1" xmlns="http://www.w3.org/2000/svg" xmlns:xlink="http://www.w3.org/1999/xlink" x="0px" y="0px"
	 viewBox="0 0 512 512" style="enable-background:new 0 0 512 512;" xml:space="preserve">
<path style="fill:#313C3F;" d="M231.483,19.668c-12.062-12.06-50.338-17.362-70.104,2.404s-41.56,13.178-41.56,13.178
	s53.222,31.436,94.78,3.047"/>
<path style="fill:#EFBC4B;" d="M473.38,496.276C391.1,523.949,228.579,476.702,52.89,416.875
	c-15.915-5.433-19.371-26.396-6.021-36.624l28.373-21.692l-8.9-34.596c-4.186-16.28,11.485-30.633,27.349-25.068
	c3.315,1.166,6.629,2.331,9.934,3.497c36.36,12.843,71.849,25.767,105.665,38.834l48.686,19.483
	c6.852,2.828,13.603,5.677,20.243,8.535l6.396,2.889l40.678,18.398C395.358,424.001,448.869,458.902,473.38,496.276z"/>
<path style="fill:#C49433;" d="M284.615,372.132l-26.7,17.313l-60.435,4.643l-36.644-4.643c0,0-19.929-47.774-57.211-87.054
	c36.36,12.843,71.849,25.767,105.665,38.834l48.686,19.483c6.852,2.828,13.603,5.677,20.243,8.535L284.615,372.132z"/>
<path style="fill:#F9DCA2;" d="M327.732,107.695l0.01,0.002l110.943,25.562c14.107,3.25,23.461,17.128,20.467,31.294
	c-1.549,7.31-5.966,13.243-11.822,16.914c-5.719,3.568-12.805,4.965-19.897,3.331l-78.296-18.04
	c-18.303-4.217-36.539,7.298-40.607,25.636l-10.961,49.417l71.179,71.179c9.413,9.413,9.413,24.675,0,34.088l-52.406,52.406
	c11.363,11.464,11.333,29.974-0.101,41.397l-3.832,3.832l-20.643-20.936l-0.152,0.142l-33.694-34.472l59.695-59.411l-39.001-39.001
	c-1.364-1.375-3.397-2.618-5.58-3.518c-2.183-0.91-4.509-1.466-6.44-1.466c-8.067,0-12.11,9.756-6.409,15.467l11.474,11.474
	c9.422,9.412,9.422,24.677,0,34.088l-52.497,52.305c11.453,11.464,11.453,30.034,0,41.499l-3.832,3.832l-20.653-20.936l-0.142,0.142
	l-33.703-34.472l59.705-59.411l-33.847-33.847c-12.989-12.989-20.286-30.607-20.286-48.976l0,0c0-3.591,0.332-7.175,0.992-10.704
	l13.783-73.734c4.195-18.204-7.163-36.361-25.357-40.554l-77.991-17.972c-14.116-3.253-23.469-17.14-20.456-31.302
	c1.559-7.308,5.974-13.23,11.816-16.885c5.723-3.588,12.819-4.982,19.911-3.348L200.634,78.41"/>
<g>
	<path style="fill:#E5C691;" d="M450.37,165.249c-5.719,3.569-12.805,4.965-19.897,3.331l-78.296-18.04
		c-18.303-4.217-36.539,7.297-40.607,25.636l-3.041,16.219c4.07-18.337,22.305-29.852,40.607-25.636l78.296,18.04
		c7.093,1.634,14.178,0.237,19.897-3.331c5.857-3.671,10.274-9.604,11.822-16.914c0.636-3.009,0.71-6.003,0.304-8.886
		C457.262,159.63,454.113,162.903,450.37,165.249z"/>
	<path style="fill:#E5C691;" d="M213.795,423.917l-27.029-27.645c-3.696-3.78-3.654-9.833,0.093-13.562l52.937-52.677
		l-33.847-33.847c-12.989-12.989-20.287-30.607-20.287-48.976c0-3.591,0.332-7.175,0.992-10.704l17.977-91.939
		c4.195-18.204-27.576-34.375-45.77-38.568L80.87,88.028c-11.109-2.56-19.263-11.706-20.766-22.387
		c-1.234,2.229-2.169,4.675-2.73,7.304c-3.014,14.161,6.338,28.049,20.456,31.302l77.991,17.97
		c17.439,4.018,28.586,20.864,25.791,38.286l0.017-0.095c-0.132,0.81-0.277,1.605-0.451,2.363l-13.783,73.734
		c-0.66,3.53-0.992,7.114-0.992,10.704c0,18.37,7.297,35.987,20.287,48.976l33.847,33.847l-59.705,59.412l33.704,34.472l0.142-0.142
		l20.653,20.936l3.832-3.832c2.038-2.04,3.707-4.308,5.021-6.719l-10.245-10.386L213.795,423.917z"/>
	<path style="fill:#E5C691;" d="M311.025,423.775l-0.152,0.142l-27.021-27.646c-3.695-3.78-3.653-9.832,0.093-13.56l44.579-44.368
		c4.608-4.586,4.617-12.042,0.02-16.639l-30.672-30.672c-1.364-1.375-3.397-2.618-5.58-3.517c-2.183-0.909-4.509-1.466-6.44-1.466
		c-3.534,0-6.295,1.872-7.804,4.457c0.198,0.173,0.387,0.349,0.564,0.527l39.001,39.001l-59.695,59.412l33.694,34.472l0.152-0.142
		l20.643,20.936l3.832-3.832c2.042-2.039,3.712-4.307,5.027-6.718L311.025,423.775z"/>
</g>
<path style="fill:#E22342;" d="M362.024,115.593l-12.884,51.16c-18.307-4.217-36.543,7.298-40.607,25.636l-10.968,49.426
	l-111.899,4.602l-19.27,0.791c0-3.588,0.335-7.177,0.993-10.704l13.786-73.734c4.197-18.205-7.167-36.36-25.352-40.557l4.237-15.935
	l9.316-35.073l31.261,7.207l127.094,29.285h0.01L362.024,115.593z"/>
<path style="fill:#E5C691;" d="M299.025,130.849c-0.051,2.362-0.334,4.734-0.882,7.126c-4.328,18.763-23.041,30.461-41.804,26.142
	c-17.942-4.146-29.437-21.449-26.609-39.371"/>
<path style="fill:#70C129;" d="M95.491,160.407C98.288,142.982,112.926,164.422,95.491,160.407L95.491,160.407z"/>
<path style="fill:#C9183A;" d="M204.632,144.564l-17.982,91.94c-0.608,3.264-0.943,6.589-0.983,9.914l-19.27,0.791
	c0-3.588,0.335-7.177,0.993-10.704l13.786-73.734c4.197-18.205-7.167-36.36-25.352-40.557l4.237-15.935
	C178.409,110.89,208.738,126.754,204.632,144.564z"/>
<path style="fill:#E22342;" d="M355.17,299.408l-48.352,16.127l-1.845,1.855l-26.365-26.365c-1.358-1.368-3.396-2.615-5.575-3.517
	c-2.19-0.902-4.511-1.46-6.447-1.46c-8.059,0-12.103,9.751-6.406,15.469l11.475,11.465l-51.119,17.05l-33.846-33.846
	c-12.995-12.995-20.294-30.613-20.294-48.98l131.168-5.393L355.17,299.408z"/>
<g>
	<path style="fill:#C9183A;" d="M234.979,325.216l-14.445,4.815l-33.846-33.846c-12.934-12.934-20.223-30.451-20.294-48.727
		c0.01-0.081,0.01-0.172,0.01-0.253l19.27-0.791c-0.01,0.264-0.01,0.527-0.01,0.791c0,18.368,7.288,35.985,20.283,48.98
		L234.979,325.216z"/>
	<path style="fill:#C9183A;" d="M318.485,311.643l-11.667,3.892l-1.845,1.855l-26.365-26.365c-0.172-0.172-0.365-0.355-0.557-0.527
		c1.51-2.585,4.268-4.45,7.805-4.45c1.926,0,4.247,0.558,6.437,1.46c2.179,0.902,4.217,2.149,5.575,3.517L318.485,311.643z"/>
</g>
<circle style="fill:#F9DCA2;" cx="269.239" cy="72.839" r="65.219"/>
<path style="fill:#E5C691;" d="M235.241,65.006c6.914-30.009,33.511-50.349,63.015-50.568c-4.483-2.223-9.285-3.978-14.375-5.15
	c-35.098-8.087-70.106,13.81-78.193,48.908c-8.087,35.098,13.81,70.106,48.908,78.193c5.09,1.173,10.175,1.696,15.179,1.659
	C243.341,124.941,228.327,95.015,235.241,65.006z"/>
<path style="fill:#455256;" d="M334.351,68.853h-0.01c-39.158,0-67.977-27.237-88.544-27.237c-20.557,0-40.111,16.584-40.111,16.584
	c8.089-35.103,43.091-56.998,78.194-48.909c5.048,1.166,9.833,2.889,14.283,5.089C319.136,24.738,332.942,45.67,334.351,68.853z"/>
<path style="fill:#313C3F;" d="M298.254,14.439c-20.963,0.152-40.445,10.461-52.457,27.176c-20.557,0-40.111,16.584-40.111,16.584
	c8.089-35.103,43.091-56.998,78.194-48.909c5.048,1.166,9.833,2.889,14.283,5.089C298.194,14.409,298.224,14.429,298.254,14.439z"/>
<path d="M479.734,492.11c-22.302-34.012-68.655-68.005-141.508-103.761l35.896-35.896c12.362-12.362,12.362-32.477,0-44.84
	l-68.23-68.229l9.939-44.805c1.483-6.685,5.313-12.703,10.98-16.547c6.106-4.141,13.466-5.512,20.618-3.865l78.297,18.04
	c8.832,2.034,17.935,0.511,25.642-4.298c7.887-4.945,13.293-12.679,15.223-21.783c3.805-18.003-7.947-36.069-26.199-40.275
	l-34.374-7.92c-4.091-0.943-8.173,1.61-9.115,5.702l0,0c-0.943,4.091,1.61,8.172,5.702,9.115l34.375,7.92
	c10.228,2.357,16.838,12.367,14.737,22.31c-1.067,5.033-4.059,9.313-8.41,12.04c-4.253,2.656-9.283,3.496-14.166,2.372
	l-70.737-16.298l9.174-36.415l2.704,0.623c4.091,0.943,8.173-1.61,9.116-5.702l0,0c0.943-4.091-1.61-8.172-5.702-9.115
	l-37.647-8.674c1.739-4.034,3.142-8.247,4.15-12.62c9.016-39.128-15.483-78.295-54.61-87.309
	c-18.457-4.252-37.45-1.237-53.662,8.452c-18.079-11.87-55.454-14.103-75.922,6.365c-16.1,16.099-33.324,11.463-33.984,11.276
	c-3.681-1.111-7.616,0.699-9.162,4.222s-0.217,7.645,3.095,9.601c0.585,0.346,14.533,8.505,33.947,13.028
	c8.4,1.957,16.547,2.929,24.358,2.929c8.657,0,16.896-1.205,24.614-3.576c-0.203,0.768-0.414,1.534-0.592,2.312
	c-1.015,4.403-1.582,8.806-1.775,13.168L90.808,45.304c-8.852-2.038-17.964-0.507-25.651,4.311
	c-7.873,4.924-13.278,12.648-15.22,21.747c-3.833,18.008,7.915,36.082,26.185,40.292l77.991,17.97
	c14.085,3.245,22.902,17.349,19.656,31.439c-0.023,0.102-0.045,0.206-0.065,0.31l-13.783,73.734
	c-0.744,3.981-1.121,8.053-1.121,12.101c0,20.532,7.996,39.834,22.514,54.352l28.459,28.459l-2.351,2.34
	c-32.17-12.369-67.667-25.339-111.214-40.635c-9.995-3.51-21.052-1.243-28.855,5.916c-7.799,7.154-11.007,17.967-8.372,28.22
	l7.642,29.72l-24.37,18.637c-8.403,6.431-12.561,16.912-10.852,27.353c1.711,10.454,9.003,19.074,19.037,22.497
	c15.665,5.335,30.074,10.179,43.814,14.729c3.99,1.321,8.292-0.849,9.606-4.842l0,0c1.312-3.984-0.848-8.276-4.831-9.593
	c-13.697-4.535-28.064-9.365-43.684-14.684c-4.78-1.631-8.122-5.579-8.938-10.56c-0.813-4.968,1.089-9.762,5.087-12.821
	l28.365-21.693c2.424-1.854,3.504-4.977,2.744-7.932l-8.895-34.592c-1.254-4.88,0.213-9.825,3.925-13.23
	c3.716-3.409,8.778-4.447,13.538-2.774c40.552,14.244,74.085,26.459,104.439,38.046l-40.136,39.939
	c-2.958,2.944-2.99,7.72-0.074,10.704l54.522,55.29c1.422,1.441,3.361,2.256,5.386,2.264c2.012,0,3.97-0.795,5.402-2.226
	l3.835-3.834c12.547-12.558,14.155-31.984,4.822-46.303l30.389-30.277c1.704,0.712,3.406,1.425,5.106,2.143l-12.299,12.24
	c-2.957,2.943-2.99,7.719-0.074,10.702l54.53,55.31c1.417,1.436,3.35,2.245,5.368,2.245h0.026c2.017,0,3.951-0.801,5.376-2.227
	l3.828-3.828c12.516-12.504,14.159-31.888,4.902-46.198l0.343-0.343c66.675,32.28,110.724,62.575,134.048,92.249
	c-31.449,7.67-74.906,6.269-132.308-4.224c-51.688-9.447-113.912-26.075-195.354-52.218c-3.991-1.281-8.273,0.908-9.562,4.897l0,0
	c-1.294,4.002,0.913,8.296,4.918,9.581c82.085,26.349,144.917,43.128,197.265,52.696c33.919,6.2,63.308,9.298,88.548,9.297
	c24.083,0,44.389-2.822,61.236-8.463c1.387-0.464,2.659-1.263,3.584-2.396C481.422,498.454,481.51,494.82,479.734,492.11z
	 M258.051,156.711c-9.505-2.197-16.784-9.223-19.722-17.944c4.577,2.145,9.439,3.853,14.559,5.033
	c5.479,1.262,11.002,1.885,16.489,1.885c6.337,0,12.619-0.843,18.718-2.487C282.383,153.651,270.215,159.51,258.051,156.711z
	 M299.79,121.684c-13.048,8.161-28.489,10.753-43.487,7.296c-14.996-3.455-27.749-12.543-35.91-25.59
	c-7.703-12.316-10.438-26.767-7.814-40.961c6.316-4.754,20.239-13.21,33.224-13.21c6.922,0,16.308,4.469,27.177,9.645
	c14.719,7.008,32.667,15.528,53.768,17.255c-0.184,3.201-0.623,6.427-1.366,9.654C321.926,100.77,312.838,113.523,299.79,121.684z
	 M269.128,15.205c4.34,0,8.712,0.494,13.046,1.492c22.447,5.172,38.798,22.89,43.377,44.041
	c-17.275-1.927-32.436-9.126-46.035-15.601c-12.533-5.967-23.358-11.122-33.715-11.122c-8.384,0-16.495,2.329-23.476,5.327
	c4.33-6.064,9.852-11.278,16.36-15.348C247.963,18.191,258.45,15.205,269.128,15.205z M150.211,39.176
	c5.414-2.505,11.056-6.241,16.543-11.728c13.513-13.513,38.184-12.824,51.93-7.033c-4.132,3.967-7.766,8.384-10.829,13.183
	C188.772,45.282,166.884,43.561,150.211,39.176z M64.808,74.532c1.074-5.033,4.062-9.303,8.42-12.029
	c4.246-2.662,9.278-3.508,14.166-2.381l72.617,16.732l-9.65,36.304L79.536,96.838C69.299,94.48,62.692,84.471,64.808,74.532z
	 M164.993,117.301l9.844-37.032l22.696,5.23c2.946,16.551,11.581,31.602,24.234,42.523c-0.894,17.776,9.595,34.29,25.826,41.202
	l-3.457,17.629c-0.808,4.12,1.877,8.115,5.998,8.923c0.494,0.097,0.986,0.144,1.471,0.144c3.561,0,6.741-2.515,7.452-6.142
	l3.375-17.212c0.578,0.023,1.157,0.049,1.731,0.049c19.331,0,36.863-13.315,41.392-32.944c0.313-1.368,0.554-2.755,0.732-4.15
	c0.524-0.31,1.048-0.618,1.566-0.943c8.069-5.047,14.93-11.491,20.355-18.97l24.549,5.656l-9.339,37.073
	c-8.399-0.398-16.707,1.764-23.975,6.351c-9.413,5.94-15.925,15.196-18.336,26.061l-9.695,43.708l-116.767,4.806
	c0.072-0.454,0.137-0.909,0.222-1.36l13.755-73.587C193.054,144.72,182.733,125.149,164.993,117.301z M192.064,290.81
	c-9.913-9.912-16.017-22.608-17.62-36.323l120.104-4.943l46.55,46.55l-35.003,11.669l-22.086-22.085
	c-2.584-2.604-5.82-4.261-8.054-5.182c-2.245-0.936-5.693-2.051-9.362-2.051c-6.758,0-12.799,4.034-15.389,10.28
	c-2.591,6.246-1.179,13.375,3.604,18.166l2.776,2.776l-34.995,11.667L192.064,290.81z M213.795,393.996
	c-1.43,1.424-2.234,3.358-2.237,5.376c-0.002,2.018,0.798,3.954,2.224,5.383c7.937,7.944,8.438,20.556,1.502,29.086l-43.75-44.324
	l53.098-52.837l44.333-14.78c1.398,2.454,2.155,5.233,2.155,8.133c0,4.407-1.717,8.55-4.83,11.658L213.795,393.996z
	 M271.394,358.071l5.636-5.616c5.994-5.988,9.295-13.951,9.295-22.423c0-8.471-3.302-16.435-9.293-22.419l-11.468-11.469
	c-0.171-0.17-0.69-0.691-0.316-1.595c0.373-0.899,1.104-0.899,1.344-0.899c0.646,0,1.954,0.231,3.543,0.893
	c1.561,0.643,2.636,1.395,3.101,1.864l33.613,33.612l-30.358,30.214C274.798,359.513,273.098,358.791,271.394,358.071z
	 M310.964,394.107c-2.959,2.96-2.97,7.755-0.022,10.728c7.869,7.939,8.338,20.512,1.425,29.005l-43.744-44.323l54.355-54.096
	c1.431-1.424,2.237-3.36,2.239-5.38s-0.799-3.956-2.226-5.385l-4.874-4.874l35.003-11.669l10.25,10.25
	c6.435,6.434,6.435,16.903,0,23.337L310.964,394.107z"/>
<path d="M297.245,82.899c-4.089-0.941-8.172,1.61-9.115,5.702l-1.905,8.265c-0.943,4.092,1.61,8.173,5.702,9.116
	c0.574,0.132,1.148,0.196,1.713,0.196c3.462,0,6.591-2.38,7.402-5.896l1.905-8.265C303.888,87.923,301.337,83.842,297.245,82.899z"
	/>
<path d="M260.982,74.544c-4.09-0.939-8.173,1.61-9.115,5.702l-1.904,8.265c-0.943,4.092,1.611,8.172,5.702,9.115
	c0.574,0.132,1.147,0.196,1.713,0.196c3.462,0,6.592-2.38,7.402-5.898l1.904-8.265C267.627,79.566,265.073,75.486,260.982,74.544z"
	/>
<g>
</g>
<g>
</g>
<g>
</g>
<g>
</g>
<g>
</g>
<g>
</g>
<g>
</g>
<g>
</g>
<g>
</g>
<g>
</g>
<g>
</g>
<g>
</g>
<g>
</g>
<g>
</g>
<g>
</g>
</svg>
