<svg id="Capa_1" enable-background="new 0 0 497 497" height="512" viewBox="0 0 497 497" width="512" xmlns="http://www.w3.org/2000/svg"><g><path d="m229.623 130.745c-24.478 1.321-44.684 10.617-56.459 25.611l-14.934-4.932c10.957-16.46 29.074-28.022 51.378-33.04z" fill="#fff9e2"/><path d="m112.653 266.294 57.811-64.093 9.847-17.056c7.38-12.782 3-29.126-9.782-36.505-12.782-7.38-29.126-3-36.505 9.781l-53.002 91.802c5.96-1.427 31.66 16.061 31.631 16.071z" fill="#ffe07d"/><path d="m250.363 116.803c33.38 4.302 63.75 22.101 80.601 46.305 2.366 3.399 1.529 8.074-1.87 10.44-1.306.909-2.8 1.345-4.278 1.345-2.372 0-4.704-1.122-6.162-3.215-11.96-17.178-32.094-30.663-55.24-36.997z" fill="#fff9e2"/><path d="m343.49 214.911 9.916-5.725c-9.762-4.511-26.232-33.021-25.266-43.716l-9.898 5.715c-8.755 5.055-19.371 3.968-26.859-1.923l-6.264-5.217c-15.936 9.2-21.396 29.577-12.195 45.513l14.657 25.386c9.2 15.936 29.577 21.395 45.513 12.195 0 0-1.012-5.496-1.374-8.041-1.342-9.419 3.025-19.138 11.77-24.187z" fill="#f1b986"/><path d="m367.764 117.66-23.456 15.948c-19.431 13.212-19.051 46.351-11.989 58.582s35.571 29.131 56.728 18.909l25.539-12.34z" fill="#f1d0a5"/><path d="m429.178 191.709c25.376-12.261 34.876-43.635 20.443-67.942-14.36-24.184-45.627-30.739-68.886-14.925l10.427 49.376 37.547 33.718z" fill="#dd636e"/><path d="m380.734 108.841-13.935 9.475c-6.768 4.602-8.839 13.646-4.746 20.734l7.764 13.448c4.315 7.473 13.871 10.034 21.344 5.719l13.56-7.829z" fill="#d3effb"/><path d="m428.709 191.936-23.987-41.547-13.56 7.829c-7.473 4.315-10.034 13.871-5.719 21.344l7.764 13.448c4.092 7.088 12.96 9.817 20.329 6.256z" fill="#b1e4f9"/><path d="m282.369 157.066-8.432-14.604-38.018-65.849c-4.217-7.305-12.815-10.866-20.962-8.683l-159.118 42.635c-4.657 1.248-7.657 5.842-6.812 10.589 2.415 13.553 15.808 21.866 28.82 18.38l5.944-1.593c.095-.026.197.002.267.072s.097.172.072.267c-2.156 8.045 2.807 16.321 11.028 18.14 7.744 1.713 15.403-3.323 17.456-10.985l4.393-16.394 54.725-9.85c12.373-2.227 23.643-7.615 32.926-15.33 1.296-1.077 3.244-.118 3.199 1.567-.254 9.601 2.053 19.354 7.125 28.189-.21-.369-.597-1.057 4.157 7.16 6.691 11.563 4.454 25.841-4.578 34.846l5.718 30.573z" fill="#f1b986"/><path d="m331.72 239.098c-6.453 4.694-14.401 6.154-21.968 4.125-6.661-1.785-12.229-6.057-15.677-12.029l-14.657-25.387c-7.581-13.133-2.277-30.228 11.965-36.546-2.019-1.588-3.811-3.526-5.277-5.787-.228-.352-.448-.711-.66-1.078l-3.078-5.33c-.34.134-.674.295-1 .484l-43.344 25.024c-8.014 4.626-18.299 1.872-22.926-6.143-.164-.284-.344-.554-.538-.808-1.739 1.734-3.729 3.272-5.956 4.558l-151.243 87.32s237.691 8.675 237.691 8.675l43.262-23.653c-3.774-3.968-5.915-8.658-6.594-13.425z" fill="#707dd3"/><path d="m198.152 259.018c-1.312 0-2.639-.344-3.846-1.066-35.03-20.969-52.854-56.378-44.351-88.109 1.071-4.001 5.183-6.375 9.186-5.304 4.001 1.072 6.375 5.185 5.303 9.186-8.492 31.696 17.603 68.91 62.899 82.418z" fill="#fff9e2"/><path d="m497 242.063c0-1.032-.852-1.858-1.883-1.842-29.194.475-29.822 11.985-60.246 11.985-31.064 0-31.064-12-62.129-12-31.063 0-31.063 12-62.126 12-31.062 0-31.062-12-62.124-12-31.061 0-31.061 12-62.121 12-31.062 0-31.062-12-62.124-12s-31.062 12-62.125 12c-30.42 0-31.048-11.51-60.238-11.985-1.032-.016-1.884.811-1.884 1.842v185.803c0 1.016.824 1.84 1.84 1.84h493.319c1.017 0 1.841-.824 1.841-1.841z" fill="#d3effb"/><g fill="#b1e4f9"><path d="m495.117 240.222c-19.76.322-26.433 5.698-38.117 9.14v66.207c0 51.991-42.147 94.138-94.138 94.138h-362.862v18.16c0 1.016.824 1.84 1.84 1.84h493.319c1.016 0 1.841-.824 1.841-1.841v-185.803c0-1.031-.852-1.858-1.883-1.841z"/><path d="m186.37 319.927c-16.929 0-25.873-3.455-33.765-6.504-7.315-2.826-14.227-5.496-28.359-5.496s-21.043 2.669-28.358 5.496c-7.892 3.048-16.836 6.504-33.766 6.504-4.143 0-7.5-3.358-7.5-7.5s3.357-7.5 7.5-7.5c14.133 0 21.044-2.67 28.359-5.496 7.892-3.049 16.836-6.504 33.765-6.504 16.93 0 25.874 3.456 33.766 6.504 7.315 2.827 14.227 5.496 28.358 5.496s21.042-2.669 28.357-5.496c7.892-3.048 16.835-6.504 33.764-6.504 4.143 0 7.5 3.358 7.5 7.5s-3.357 7.5-7.5 7.5c-14.132 0-21.042 2.669-28.357 5.496-7.892 3.048-16.835 6.504-33.764 6.504z"/><path d="m434.871 380.146c-16.931 0-25.875-3.455-33.767-6.504-7.317-2.826-14.229-5.496-28.362-5.496s-21.044 2.67-28.361 5.496c-7.891 3.049-16.835 6.504-33.765 6.504s-25.874-3.456-33.766-6.504c-7.315-2.827-14.227-5.496-28.359-5.496s-21.042 2.669-28.357 5.496c-7.892 3.048-16.835 6.504-33.764 6.504-4.143 0-7.5-3.358-7.5-7.5s3.357-7.5 7.5-7.5c14.132 0 21.042-2.669 28.357-5.496 7.892-3.048 16.835-6.504 33.764-6.504 16.93 0 25.874 3.456 33.766 6.504 7.315 2.827 14.227 5.496 28.359 5.496s21.043-2.669 28.359-5.496c7.892-3.048 16.836-6.504 33.767-6.504s25.875 3.455 33.767 6.504c7.317 2.826 14.229 5.496 28.362 5.496 4.143 0 7.5 3.358 7.5 7.5s-3.357 7.5-7.5 7.5z"/></g><path d="m434.871 380.146c4.143 0 7.5-3.358 7.5-7.5 0-1.66-.54-3.195-1.453-4.437-2.85 4.218-6.034 8.193-9.512 11.887 1.116.033 2.271.05 3.465.05z" fill="#90d8f9"/></g></svg>