<svg id="Layer_1_1_" enable-background="new 0 0 64 64" height="512" viewBox="0 0 64 64" width="512" xmlns="http://www.w3.org/2000/svg"><path d="m3 52v9h6v-15c-3.314 0-6 2.686-6 6z" fill="#f5cba1"/><path d="m37 61h-28v-15l9-2h10l9 2z" fill="#46afda"/><g fill="#f5cba1"><path d="m43 52v9h-6v-15c3.314 0 6 2.686 6 6z"/><path d="m35.5 28c1.114 0 2.047-.734 2.37-1.741.022-.359.05-.719.098-1.078-.158-1.228-1.196-2.181-2.468-2.181h-1.5v5z"/><path d="m10.5 23c-1.381 0-2.5 1.119-2.5 2.5s1.119 2.5 2.5 2.5h1.5v-5z"/></g><path d="m35.304 5.282c-.806-1.411-2.307-2.282-3.933-2.282-.894 0-1.768.265-2.513.761l-1.858 1.239c-1.956-1.304-4.255-2-6.606-2h-1.394c-3.148 0-6.111 1.482-8 4s-4.852 4-8 4h-1l1.713 2.569c1.371 2.058 3.888 3.031 6.287 2.431v-1h3 7 15l.204-.341c1.727-2.877 1.765-6.463.1-9.377z" fill="#4d2817"/><path d="m12 23v5 1c0 6.075 4.925 11 11 11s11-4.925 11-11v-1-5-3h-22z" fill="#f5cba1"/><circle cx="56" cy="52" fill="#c9f364" r="5"/><path d="m59.195 30.112c2.894-6.71.922-13.177-5.164-15.802s-12.143.378-15.037 7.088-.035 15.232 4.556 17.212 12.751-1.787 15.645-8.498z" fill="#fff"/><path d="m33 58.02 4.591 1.98 4.753-11.019-3.673-1.584-.918-.396z" fill="#fff"/><path d="m56 55c-2.419 0-4.436-1.718-4.899-4-.066.323-.101.657-.101 1 0 2.761 2.239 5 5 5s5-2.239 5-5c0-.343-.035-.677-.101-1-.463 2.282-2.48 4-4.899 4z" fill="#add156"/><path d="m10 15h26v5h-26z" fill="#1a326e"/><path d="m23 40c-1.802 0-3.499-.442-5-1.21v7.21s3 2 5 2c3 0 5-2 5-2v-7.21c-1.501.768-3.198 1.21-5 1.21z" fill="#f5cba1"/><path d="m18 38.79v3c1.501.768 3.198 1.21 5 1.21s3.499-.442 5-1.21v-3c-1.501.768-3.198 1.21-5 1.21s-3.499-.442-5-1.21z" fill="#d9b48e"/><path d="m12 20h22v2h-22z" fill="#d9b48e"/><path d="m36.385 8.437c-.32 1.889-2.011 3.241-3.926 3.284l-12.459.279h-3.838c-2.094 0-4.175.338-6.162 1-2.244.561-4.579-.267-5.995-2.059-.333.034-.667.059-1.005.059h-1l1.713 2.569c1.371 2.058 3.888 3.031 6.287 2.431v-1h3 7 15l.204-.341c1.145-1.909 1.531-4.127 1.186-6.257-.002.012-.004.023-.005.035z" fill="#3b1e12"/><ellipse cx="31.5" cy="6" fill="#61321d" rx="2.5" ry="1"/><ellipse cx="33.5" cy="8.5" fill="#61321d" rx="1.5" ry=".5"/><path d="m18 27.75c-.965 0-1.75-.785-1.75-1.75s.785-1.75 1.75-1.75 1.75.785 1.75 1.75-.785 1.75-1.75 1.75zm0-2c-.138 0-.25.112-.25.25 0 .275.5.275.5 0 0-.138-.112-.25-.25-.25z"/><path d="m28 27.75c-.965 0-1.75-.785-1.75-1.75s.785-1.75 1.75-1.75 1.75.785 1.75 1.75-.785 1.75-1.75 1.75zm0-2c-.138 0-.25.112-.25.25 0 .275.5.275.5 0 0-.138-.112-.25-.25-.25z"/><path d="m23 34.75c-2.068 0-3.75-1.682-3.75-3.75h1.5c0 1.241 1.009 2.25 2.25 2.25s2.25-1.009 2.25-2.25h1.5c0 2.068-1.682 3.75-3.75 3.75z"/><path d="m8.589 17.174c.137 0 .274-.017.411-.025v2.851c0 .552.448 1 1 1h1v1h-.5c-1.93 0-3.5 1.57-3.5 3.5s1.57 3.5 3.5 3.5h.5c0 4.43 2.419 8.297 6 10.376v3.822l-8.114 1.803c-3.807.061-6.886 3.177-6.886 6.999v9c0 .552.448 1 1 1h40c.552 0 1-.448 1-1v-9c0-1.024-.238-2.032-.668-2.954.026-.406-.191-.802-.583-.976 1.303-2.881 3.381-5.312 6.039-7.037l4.632-3.006-.029-.044c2.999-1.79 5.422-4.462 6.722-7.474 3.14-7.279.802-14.317-5.686-17.116-6.487-2.796-13.211.333-16.352 7.611-.231.535-.418 1.079-.583 1.627-.566-.396-1.251-.631-1.992-.631h-.5v-1h1c.552 0 1-.448 1-1v-5c0-.339-.179-.624-.437-.804 1.385-2.996 1.268-6.507-.39-9.409-.983-1.72-2.822-2.787-4.801-2.787-1.095 0-2.156.321-3.067.929l-1.32.88c-1.995-1.185-4.259-1.809-6.59-1.809h-1.395c-3.444 0-6.733 1.645-8.8 4.4-1.691 2.254-4.382 3.6-7.2 3.6h-1c-.369 0-.708.203-.882.528s-.155.72.05 1.026l1.713 2.569c1.288 1.933 3.452 3.051 5.708 3.051zm1.911 9.826c-.827 0-1.5-.673-1.5-1.5s.673-1.5 1.5-1.5h.5v3zm2.5 2v-8h20v8c0 5.514-4.486 10-10 10s-10-4.486-10-10zm22 0h.5c.494 0 .962-.105 1.389-.291.069.813.188 1.611.365 2.383l-.037.01 1.356 5.229c.751 2.896.677 5.962-.166 8.82-.424-.087-.855-.143-1.293-.15l-8.114-1.803v-3.822c3.581-2.079 6-5.946 6-10.376zm6.029 20.503-3.96 9.182-2.755-1.188 3.96-9.182zm-31.029-2.701 2.506-.557c2.342 3.491 6.284 5.648 10.494 5.648s8.153-2.157 10.494-5.648l3.19.709-4.602 10.669c-.105.244-.109.519-.011.765.098.247.29.444.533.549l2.462 1.063h-25.066zm13-5.802c1.404 0 2.747-.255 4-.7v5.268c-2.282 2.001-5.718 2.001-8 0v-5.268c1.253.445 2.596.7 4 .7zm-5.707 5.707c1.573 1.574 3.64 2.36 5.707 2.36s4.134-.787 5.707-2.36c.188-.187.293-.442.293-.707v-.754l2.397.533c-2.008 2.567-5.114 4.114-8.397 4.114s-6.389-1.547-8.397-4.114l2.397-.533v.754c0 .265.105.52.293.707zm-13.293 5.293c0-2.414 1.721-4.434 4-4.899v12.899h-4zm34.681 8 3.319-7.696v7.696zm2.232-12.725-.967-.417c1.04-2.831 1.37-5.889.969-8.873.692.662 1.441 1.199 2.238 1.543.938.405 2.015.604 3.17.604.096 0 .199-.018.296-.021-2.475 1.869-4.426 4.322-5.706 7.164zm8.73-32.905c1.305 0 2.649.28 3.993.859 5.492 2.369 7.357 8.191 4.641 14.487-1.25 2.9-3.702 5.458-6.726 7.016-2.806 1.445-5.648 1.804-7.604.96-3.079-1.328-5.377-6.181-5.104-11.208.092-.314.157-.64.157-.984 0-.102-.022-.198-.03-.298.166-1.155.467-2.304.943-3.407 2.051-4.756 5.699-7.425 9.73-7.425zm-14.143 9.63c.705 0 1.295.491 1.454 1.148-.041.32-.063.64-.085.959-.234.525-.758.893-1.369.893h-.5v-3zm-.5-5h-1-22-1v-3h24zm-23.2-11.4c1.691-2.254 4.382-3.6 7.2-3.6h1.395c2.161 0 4.253.633 6.051 1.832.336.224.773.224 1.109 0l1.859-1.239c.581-.388 1.258-.593 1.958-.593 1.263 0 2.438.682 3.064 1.778 1.457 2.549 1.442 5.682-.015 8.222h-9.961c.954-1.063 1.54-2.462 1.54-4h-2c0 2.206-1.794 4-4 4h-2.54c.954-1.063 1.54-2.462 1.54-4h-2c0 2.206-1.794 4-4 4h-3c-.552 0-1 .448-1 1v.156c-1.742.15-3.465-.656-4.455-2.141l-.698-1.048c3.13-.245 6.056-1.839 7.953-4.367z"/><path d="m42.649 30.599 1.837.792.765-1.775 1.841.78-.771 1.787 1.837.792.776-1.799 1.841.78-.782 1.812 1.837.792.787-1.824 1.848.782.779-1.842-1.835-.777.792-1.837 1.848.783.779-1.842-1.835-.777.797-1.849 1.836.792.792-1.837-1.836-.792.792-1.836-1.837-.792-.792 1.836-1.836-.792.792-1.837-1.837-.792-.792 1.836-1.836-.792.792-1.836-1.837-.792-.792 1.836-3.673-1.584-.792 1.837 3.673 1.584-.824 1.91-3.624-1.534-.779 1.842 3.611 1.529-.79 1.837-3.624-1.534-.779 1.842 3.611 1.529zm8.919-.48-1.841-.78.792-1.837 1.841.78zm2.387-5.533-.803 1.861-1.841-.78.808-1.873zm-5.509-2.377 1.836.792-.813 1.886-1.841-.78zm-1.61 3.735 1.841.78-.792 1.837-1.841-.78z"/><path d="m56 46c-3.309 0-6 2.691-6 6s2.691 6 6 6 6-2.691 6-6-2.691-6-6-6zm0 10c-2.206 0-4-1.794-4-4s1.794-4 4-4 4 1.794 4 4-1.794 4-4 4z"/><path d="m56 60c-1.853 0-3.591-.614-5.028-1.777l-1.258 1.555c1.771 1.433 4.003 2.222 6.286 2.222z"/><path d="m46 52h2c0-1.853.614-3.591 1.777-5.028l-1.555-1.258c-1.433 1.771-2.222 4.003-2.222 6.286z"/></svg>