<svg id="Layer_1" enable-background="new 0 0 512 512" height="512" viewBox="0 0 512 512" width="512" xmlns="http://www.w3.org/2000/svg"><g><path d="m512 511.121v-47.391c-32.002 0-32.002 21.933-64.004 21.933s-32.002-21.933-64.004-21.933c-32.001 0-32.001 21.933-64.001 21.933s-32-21.933-63.999-21.933c-31.998 0-31.998 21.933-63.996 21.933-31.999 0-31.999-21.933-63.999-21.933s-32 21.933-64 21.933c-31.998 0-31.998-21.933-63.997-21.933v47.391z" fill="#73c8f0"/><path d="m170.599 385.547 179.216-35.698s4.12-235.958-76.823-337.101c0 0-101.641 180.681-102.393 372.799z" fill="#e64937"/><g id="XMLID_3411_"><g><path d="m351.157 204.153c1.419 0 2.86.158 4.303.488l25.112 5.74c20.005 4.572 32.515 24.496 27.942 44.5l-16.194 74.931-83.533-7.282 23.64-103.427c2.037-8.911 9.96-14.95 18.73-14.95" fill="#fff"/></g></g><ellipse cx="252.057" cy="465.796" fill="#965028" rx="167.265" ry="37.565" transform="matrix(.995 -.104 .104 .995 -47.03 28.708)"/><g id="XMLID_5419_"><path d="m344.616 373.999 15.544-12.805-16.991-12.601-33.133 3.509c-5.982 4.928-8.466 12.938-6.322 20.386l19.118 66.416c2.97 10.32 13.743 16.277 24.063 13.307s16.277-13.744 13.307-24.063z" fill="#ffb69e"/></g><g id="XMLID_5417_"><path d="m287.663 338.126-30.724-5.287-18.277 9.476c-3.847 1.994-6.917 5.216-8.723 9.154l-37.895 82.606c-4.478 9.761-.195 21.303 9.565 25.78 9.775 4.485 21.311.178 25.78-9.565l35.107-76.529 24.239-12.567z" fill="#ffb69e"/></g><path d="m380.828 135.999c-17.305-3.955-34.54 6.867-38.496 24.172-3.955 17.305 6.867 34.541 24.172 38.496s34.54-6.867 38.496-24.172-6.867-34.541-24.172-38.496z" fill="#ffb69e"/><g><path d="m171.268 485.115c-4.107 0-7.54-3.216-7.76-7.366-.04-.748-3.838-75.91 7.21-171.122 6.497-55.986 16.781-107.92 30.566-154.36 17.311-58.315 40.239-108.131 68.149-148.066 2.46-3.521 7.309-4.38 10.831-1.919 3.521 2.461 4.38 7.31 1.919 10.831-26.928 38.529-49.115 86.788-65.944 143.435-13.53 45.543-23.637 96.549-30.039 151.602-10.927 93.962-7.199 168.04-7.16 168.777.227 4.289-3.066 7.951-7.355 8.177-.139.008-.279.011-.417.011z" fill="#b48255"/></g><g><path d="m445.557 249.5-47.474-31.818c-5.491-3.68-11.643-6.262-18.116-7.602l-21.212-4.391c-7.373-1.526-15.035-.784-21.977 2.13l-55.742 23.396-53.937-6.721c-8.792-1.095-16.806 5.143-17.901 13.935-1.096 8.791 5.143 16.806 13.935 17.901l58.167 7.248c2.72.34 5.544-.021 8.166-1.116l36.538-15.261-10.821 47.344 43.939 20.959 37.368-5.215 5.865-26.908 35.853-4.588c6.059-.775 11.393-4.712 13.483-10.452 2.559-7.033-.056-14.766-6.134-18.841z" fill="#ffb69e"/></g><g><path d="m315.183 294.547-2.099 9.183-56.144 29.109 29.797 28.355 33.089-17.155-9.788 8.063 50.124 9.092 20.051-16.694c6.959-5.794 11.79-13.741 13.729-22.587l2.548-11.623z" fill="#414b82"/></g></g></svg>