<svg id="Capa_1" enable-background="new 0 0 486.209 486.209" height="512" viewBox="0 0 486.209 486.209" width="512" xmlns="http://www.w3.org/2000/svg"><g><g id="icon_2_"><g fill="#f4bb87"><ellipse cx="196.461" cy="85.857" rx="8.135" ry="12.44"/><ellipse cx="288.799" cy="85.857" rx="8.135" ry="12.44"/><path d="m224.862 122.506h35.511v35.6h-35.511z"/></g><path d="m441.017 369.718s-31.603 10.335-34.639 6.38l-2.965-3.558c-15.6-19.045-60.977-58.143-68.78-70.399-9.828-15.667-17.718-32.469-23.498-50.038-1.115-3.243-2.028-6.279-2.965-9.321-4.862-16.009-14.485-4.358-27.145-15.416l-11.141-9.724c-8.206 12.256-17.118 16.205-27.145 6.279-10.027 9.926-18.944 5.977-27.145-6.279l-11.141 9.724c-12.659 11.04-22.282-.593-27.145 15.416-.913 3.042-1.82 6.078-2.965 9.321-5.779 17.568-13.67 34.371-23.498 50.038-7.797 12.256-53.18 51.354-68.78 70.399l-2.965 3.558c-3.042 3.949-34.645-6.38-34.645-6.38 20.16-29.676 85.288-95.113 92.077-113.043l11.04-28.461c3.701-7.144 6.459-14.737 8.206-22.591 5.164-43.154 23.599-49.332 23.599-49.332 4.186.3 8.391.199 12.558-.302 17.462-2.659 34.515-7.526 50.749-14.485 16.234 6.959 33.287 11.826 50.749 14.485 4.167.501 8.372.602 12.558.302 0 0 18.434 6.178 23.599 49.332 1.748 7.853 4.506 15.447 8.206 22.591l11.04 28.461c6.911 17.931 72.027 83.367 92.181 113.043z" fill="#fed19a"/><path d="m422.647 447.6-108.276-8.301-52.694 8.663-18.381-16.24-18.766 16.24-52.694-8.663-108.275 8.301c-78.682-16.24-48.366-66.409-48.366-66.409 23.338-26.285 102.097-13.501 141.006-5.2 9.881 2.041 19.545-4.315 21.586-14.196.137-.664.237-1.334.3-2.009.517-7.622 2.532-15.067 5.929-21.909 39.088 7.344 79.202 7.344 118.29 0 3.054 6.976 4.956 14.401 5.633 21.986.976 10.062 9.924 17.427 19.985 16.451.642-.062 1.28-.158 1.912-.288 38.843-8.301 117.822-21.168 141.195 5.159-.024.001 30.299 50.169-48.384 66.415z" fill="#575b6d"/><path d="m127.497 412.682c-.505.804-1.381 1.299-2.33 1.316-.502.009-.995-.132-1.417-.403l-.913-.504c-31.805-18.737-44.974-26.439-83.568-11.343-.327.115-.668.183-1.014.202 41.126-16.104 55.914-11.954 87.315 6.481l1.014.504c1.267.797 1.671 2.457.913 3.747z" fill="#414451"/><path d="m360.674 408.407-1.014.504c-1.267.797-1.672 2.457-.913 3.747.505.804 1.381 1.299 2.33 1.316.5-.004.99-.143 1.417-.403l.913-.504c31.805-18.737 44.974-26.439 83.568-11.343.508.234 1.085.27 1.619.101-41.126-16.104-56.518-11.852-87.92 6.582z" fill="#414451"/><path d="m321.226 480.081c.723 5.413-8.301 8.663-14.823 3.611-3.983-3.533-8.203-6.79-12.629-9.748-1.376-.744-2.827-1.341-4.328-1.779-12.234-3.985-25.292-4.73-37.9-2.164-18.766 2.526-60.995-6.522-60.995-6.522l-25.982-2.526-51.247-5.414c-1.779-.362-3.249-.362-5.052-.723l-43.284-6.86c3.611-29.593 35.73-45.834 57.746-41.144 0 0 52.694 28.152 79.4 34.283 3.657.904 7.446 1.149 11.189.723 8.026-.678 15.679-3.689 22.016-8.663 6.137-5.052 14.823-6.137 28.152 14.438 0 0 41.867-3.973 54.135 20.931 1.999 3.556 3.228 7.494 3.602 11.557z" fill="#fed19a"/><path d="m317.621 468.531-21.292 2.164c-.362 0-2.888.723-6.854 1.447-12.234-3.985-25.292-4.731-37.9-2.164-18.766 2.526-60.995-6.522-60.995-6.522l-25.982-2.526c9.093-11.684 22.757-18.911 37.533-19.851 3.657.904 7.446 1.149 11.189.723 8.026-.678 15.679-3.689 22.016-8.663 6.137-5.052 14.823-6.137 28.152 14.438-.008.023 41.859-3.95 54.133 20.954z" fill="#f4bb87"/><path d="m363.621 406.818s-72.978 38.535-90.885 35.06c-13.329-2.591-16.869-4.631-21.814-8.663-6.149-5.01-14.823-6.214-28.33 14.278 0 0-53.761-4.88-57.716 32.611-.563 5.336 8.301 8.669 14.788 3.486 4.012-3.407 8.221-6.575 12.606-9.487 11.266-6.03 23.51-6.487 42.419-3.937s60.841-6.665 60.841-6.665l77.455-7.993c1.605-.166 3.204-.378 4.797-.634l43.421-7.008c-3.465-29.575-35.774-45.774-57.582-41.048z" fill="#fed19a"/><path d="m294.123 280.962c-4.251 10.673-10.673 14.687 8.153 56.922-38.972 8.499-79.318 8.499-118.29 0 18.719-42.264 12.286-46.249 7.578-56.922-.722-1.827-1.722-3.531-2.965-5.052-.177-.506-.451-.973-.806-1.376-6.01-6.917-10.508-15.013-13.205-23.771-4.423-16.928.624-34.926 13.205-47.085l-7.708-47.435c4.17.321 8.361.244 12.517-.231.593 28.941 100.372 28.941 100.947 0 4.155.475 8.347.553 12.517.231l-7.708 47.435c12.945 12.52 17.858 31.198 12.748 48.466-2.726 8.235-7.059 15.847-12.748 22.395-.355.402-.629.869-.806 1.376-1.275 1.59-2.421 3.277-3.429 5.047z" fill="#ef5261"/><path d="m215.542 263.903c0 1.281 0 1.708-.427 2.135-3.213 9.987-13.084 16.268-23.492 14.948-.761-1.829-1.758-3.551-2.965-5.123 10.706 3.579 22.373-1.612 26.884-11.96z" fill="#da364c"/><path d="m297.544 275.857c-1.242 1.636-2.382 3.347-3.415 5.123-10.302 1.303-20.043-5.011-23.059-14.948-.427-.427-.427-.854-.427-2.135 4.511 10.357 16.19 15.549 26.901 11.96z" fill="#da364c"/><path d="m260.373 122.506v23.504c-4.574 4.005-10.317 6.43-16.377 6.914h-2.763c-6.06-.484-11.803-2.908-16.377-6.914v-23.504z" fill="#f4bb87"/><path d="m288.745 46.652v57.052c.05 8.467-3.327 16.594-9.362 22.531-9.712 9.487-25.087 22.134-36.762 20.836-11.675 1.299-27.05-11.367-36.762-20.836-6.035-5.938-9.412-14.065-9.362-22.531v-57.052z" fill="#fed19a"/><ellipse cx="242.627" cy="15.102" fill="#575b6d" rx="18.428" ry="15.102"/><path d="m292.303 65.916c.414 5.184-3.452 9.722-8.636 10.136-1.119.089-2.244-.022-3.323-.329-16.009-4.838-26.196-10.21-34.527-29.291-7.837 16.056-23.249 27.073-40.978 29.291-5.243 1.221-10.484-2.04-11.705-7.283-.193-.827-.276-1.675-.249-2.524 2.016-29.825 13.97-50.245 46.753-51.722h6.048c32.796 1.477 44.749 21.898 46.617 51.722z" fill="#62667c"/></g></g></svg>